<svg id="Ñëîé_1" data-name="Ñëîé 1" xmlns="http://www.w3.org/2000/svg" viewBox="0 0 443.04 177.54"><path d="M264.84,11.14h2.47v3.33A9.71,9.71,0,0,1,270,11.78a7.48,7.48,0,0,1,3.95-1.13,6.45,6.45,0,0,1,2.65.55,5.71,5.71,0,0,1,2.06,1.45A7.91,7.91,0,0,1,280,15.26a9.11,9.11,0,0,1,3.09-3.44,7.3,7.3,0,0,1,4-1.17,6.16,6.16,0,0,1,3.52,1,5.93,5.93,0,0,1,2.27,2.81,14.84,14.84,0,0,1,.74,5.41v10.5h-2.53V19.88a13.52,13.52,0,0,0-.44-4.25,3.77,3.77,0,0,0-1.5-1.87,4.54,4.54,0,0,0-2.55-.71,5.59,5.59,0,0,0-3.29,1.06,6.15,6.15,0,0,0-2.18,2.83,18.23,18.23,0,0,0-.68,5.91v7.53H278V20.53a16.89,16.89,0,0,0-.43-4.73,4,4,0,0,0-1.51-2,4.4,4.4,0,0,0-2.57-.75,5.55,5.55,0,0,0-3.21,1A6.21,6.21,0,0,0,268,16.87a15,15,0,0,0-.72,5.36v8.15h-2.47Z"/><path d="M323.07,11.14V30.38h-2.44v-3.3a10.55,10.55,0,0,1-3.49,2.84,9.74,9.74,0,0,1-11.21-2,10,10,0,0,1-2.9-7.21A9.78,9.78,0,0,1,306,13.6a9.52,9.52,0,0,1,7-2.95,9,9,0,0,1,4.29,1,9.79,9.79,0,0,1,3.37,3V11.14ZM313.18,13a7.44,7.44,0,0,0-6.6,3.86,7.83,7.83,0,0,0,0,7.78,7.53,7.53,0,0,0,2.8,2.88,7.31,7.31,0,0,0,3.77,1,7.67,7.67,0,0,0,3.85-1,7.11,7.11,0,0,0,2.8-2.77,8,8,0,0,0,1-3.94,7.64,7.64,0,0,0-2.2-5.58A7.27,7.27,0,0,0,313.18,13Z"/><path d="M333.69,3.72h2.48V18.91l8.92-7.77h3.64l-10.58,9.18,11.2,10.06h-3.49l-9.69-8.66v8.66h-2.48Z"/><path d="M373.16,24l2.09,1.1a11.53,11.53,0,0,1-2.37,3.25,9.38,9.38,0,0,1-3,1.88,10.55,10.55,0,0,1-3.8.65,9.2,9.2,0,0,1-7.37-3.09,10.56,10.56,0,0,1-.41-13.5,9.19,9.19,0,0,1,7.63-3.64,9.49,9.49,0,0,1,7.86,3.73A10.48,10.48,0,0,1,375.89,21H358.57a7.81,7.81,0,0,0,2.15,5.49,6.82,6.82,0,0,0,5.11,2.15,8.21,8.21,0,0,0,2.86-.51,7.59,7.59,0,0,0,2.37-1.36A11.5,11.5,0,0,0,373.16,24Zm0-5.18a8.25,8.25,0,0,0-1.44-3.17,6.89,6.89,0,0,0-2.51-1.91,7.68,7.68,0,0,0-3.27-.72,7,7,0,0,0-4.87,1.82,8.24,8.24,0,0,0-2.25,4Z"/><path d="M401.53,3.22a2,2,0,0,1,1.44.6,2,2,0,0,1,.6,1.45A1.94,1.94,0,0,1,403,6.7a2,2,0,0,1-2.87,0,1.94,1.94,0,0,1-.6-1.43,2,2,0,0,1,.6-1.45A2,2,0,0,1,401.53,3.22Zm-1.23,7.92h2.47V30.38H400.3Z"/><path d="M413,11.14h2.48v3.45a10.32,10.32,0,0,1,3.29-3,8,8,0,0,1,3.92-1,6.82,6.82,0,0,1,3.83,1.09,6.55,6.55,0,0,1,2.47,3,15.59,15.59,0,0,1,.8,5.78v9.9H427.3V21.21a22,22,0,0,0-.28-4.44,4.83,4.83,0,0,0-1.65-2.88,5,5,0,0,0-3.18-1,6.08,6.08,0,0,0-4,1.48,7,7,0,0,0-2.35,3.68,26.16,26.16,0,0,0-.35,5.24v7.05H413Z"/><path d="M263.86,45.17h2.64l6.46,14,6.38-14H282l-8.81,19.24h-.46Z"/><path d="M291.69,37.25a2,2,0,0,1,2,2,1.94,1.94,0,0,1-.6,1.43,2,2,0,0,1-1.44.6,2,2,0,0,1-2-2,2,2,0,0,1,.6-1.45A1.94,1.94,0,0,1,291.69,37.25Zm-1.23,7.92h2.47V64.41h-2.47Z"/><path d="M319.35,58l2.08,1.1a11.34,11.34,0,0,1-2.37,3.25,9.23,9.23,0,0,1-3,1.88,10.61,10.61,0,0,1-3.81.65,9.18,9.18,0,0,1-7.36-3.09,10.53,10.53,0,0,1-.41-13.5,9.18,9.18,0,0,1,7.63-3.64A9.49,9.49,0,0,1,320,48.41,10.42,10.42,0,0,1,322.07,55H304.76a7.8,7.8,0,0,0,2.14,5.49A6.84,6.84,0,0,0,312,62.63a8.25,8.25,0,0,0,2.86-.51,7.65,7.65,0,0,0,2.36-1.36A11.49,11.49,0,0,0,319.35,58Zm0-5.18a8.11,8.11,0,0,0-1.45-3.17,6.85,6.85,0,0,0-2.5-1.91,7.73,7.73,0,0,0-3.28-.72,7,7,0,0,0-4.87,1.82,8.15,8.15,0,0,0-2.24,4Z"/><path d="M333.92,38h2.47v7.14h3.93v2.14h-3.93v17.1h-2.47V47.31h-3.38V45.17h3.38Z"/><path d="M349.1,45.17h2.48v3.45a10.32,10.32,0,0,1,3.29-3,8,8,0,0,1,3.92-1,6.82,6.82,0,0,1,3.83,1.09,6.55,6.55,0,0,1,2.47,3,15.56,15.56,0,0,1,.8,5.78v9.9h-2.48V55.24a22,22,0,0,0-.28-4.44,4.83,4.83,0,0,0-1.65-2.88,5,5,0,0,0-3.18-1,6.08,6.08,0,0,0-4,1.48,7,7,0,0,0-2.35,3.68,26.16,26.16,0,0,0-.35,5.24v7H349.1Z"/><path d="M395.43,45.17V64.41H393v-3.3A10.55,10.55,0,0,1,389.5,64a9.74,9.74,0,0,1-11.21-2,10,10,0,0,1-2.9-7.21,9.78,9.78,0,0,1,2.92-7.11,9.52,9.52,0,0,1,7-3,9,9,0,0,1,4.29,1,9.79,9.79,0,0,1,3.37,3V45.17Zm-9.89,1.89a7.48,7.48,0,0,0-6.6,3.87,7.83,7.83,0,0,0,0,7.78,7.53,7.53,0,0,0,2.8,2.88,7.31,7.31,0,0,0,3.77,1,7.67,7.67,0,0,0,3.85-1,7.11,7.11,0,0,0,2.8-2.77,8,8,0,0,0,1-3.94,7.64,7.64,0,0,0-2.2-5.58A7.28,7.28,0,0,0,385.54,47.06Z"/><path d="M406.06,45.17h2.47V48.5a9.57,9.57,0,0,1,2.66-2.69,7.46,7.46,0,0,1,3.95-1.13,6.49,6.49,0,0,1,2.65.55,5.8,5.8,0,0,1,2.06,1.45,7.91,7.91,0,0,1,1.38,2.61,9.18,9.18,0,0,1,3.08-3.44,7.36,7.36,0,0,1,4-1.17,6.18,6.18,0,0,1,3.52,1,6,6,0,0,1,2.27,2.81,15.06,15.06,0,0,1,.74,5.41v10.5H432.3V53.91a13.83,13.83,0,0,0-.44-4.25,3.79,3.79,0,0,0-1.51-1.87,4.51,4.51,0,0,0-2.54-.71,5.59,5.59,0,0,0-3.29,1.06A6.15,6.15,0,0,0,422.34,51a17.89,17.89,0,0,0-.69,5.91v7.53h-2.47V54.56a17.3,17.3,0,0,0-.43-4.73,4,4,0,0,0-1.52-2,4.37,4.37,0,0,0-2.56-.75,5.51,5.51,0,0,0-3.21,1,6.14,6.14,0,0,0-2.21,2.78,15,15,0,0,0-.72,5.36v8.15h-2.47Z"/><path d="M63.78,69.24H54.47l.11-55.95-19.65,56H32.79L5.68,14,6.8,69.24H3.53V4.7h9.1L37.08,55,54.88,4.7h8.9Z"/><path d="M102.35,4.7l23.53,64.54H115l-7.67-22.91c-.27-.07-.7-.15-1.28-.26s-1.72-.2-3.43-.3a38.07,38.07,0,0,0-5,0,31.71,31.71,0,0,0-5.73,1,28.36,28.36,0,0,0-6,2.2,20.76,20.76,0,0,0-5.32,4,20,20,0,0,0-4.14,6.24l-3.69,10H68.9L92.73,4.7Zm-23.43,46A20.05,20.05,0,0,1,85.37,46a23.69,23.69,0,0,1,7.36-2.2,54,54,0,0,1,6.8-.36,40.39,40.39,0,0,1,5.17.36l1.84.41L94,7Z"/><path d="M173.24,4.7h3.48V69.24h-1.54L133.34,16l1.13,53.29h-3.28V4.7h4.91l38.26,49.2Z"/><path d="M232.06,4.7V46.94q0,11.16-5,17.19t-14.84,6q-13.19,0-19.54-5.62t-6.34-18.11V4.7h9.11V48.07q0,9.21,4.39,14.63t12.48,5.42a18.51,18.51,0,0,0,8.19-1.69A13.57,13.57,0,0,0,226,61.78a22,22,0,0,0,3-6.55,29.55,29.55,0,0,0,1-7.78L228.48,4.7Z"/><path d="M42.71,99.47v3.68l-29.87-1.43v27.72h17.9v2.25H12.84V164H3.53V99.47Z"/><path d="M67,99.47,90.48,164H79.64L72,141.1c-.28-.07-.7-.15-1.28-.26s-1.73-.2-3.43-.3a41.87,41.87,0,0,0-5,0,31.71,31.71,0,0,0-5.73,1,28.65,28.65,0,0,0-6,2.2,20.72,20.72,0,0,0-5.31,4A20.2,20.2,0,0,0,41.07,154l-3.68,10H33.5L57.34,99.47Zm-23.42,46A20.12,20.12,0,0,1,50,140.74a23.75,23.75,0,0,1,7.37-2.2,53.79,53.79,0,0,1,6.8-.36,40.39,40.39,0,0,1,5.17.36l1.84.41L58.56,101.72Z"/><path d="M137.54,148.26l.36.05a6.81,6.81,0,0,1,.81.26,5.33,5.33,0,0,1,1.08.51,5.24,5.24,0,0,1,1,.82,3.06,3.06,0,0,1,.72,1.07,3.23,3.23,0,0,1,.1,1.43,4.89,4.89,0,0,1-.72,1.9q-6.34,10.63-21.27,10.64a26.15,26.15,0,0,1-10.85-2.41,29.79,29.79,0,0,1-9.36-6.65,32.59,32.59,0,0,1-6.54-10.53,36.17,36.17,0,0,1-2.51-13.56,37.68,37.68,0,0,1,2.4-13.55,32.18,32.18,0,0,1,6.35-10.54,28.7,28.7,0,0,1,9.15-6.65A25.45,25.45,0,0,1,119,98.65a33.83,33.83,0,0,1,10.23,1.79,29.77,29.77,0,0,1,9.41,4.75l-4.09,6Q128,100.9,118.92,100.9q-7.36,0-12.48,9.1t-5.12,21.89q0,12.9,5.63,22t13.81,9A16.45,16.45,0,0,0,132.42,158Q137.54,153.17,137.54,148.26Z"/><path d="M142.34,99.47h50.74v3.68l-20.66-1.43V164H163V101.72l-20.67,1.43Z"/><path d="M242.9,99.47v42.24q0,11.16-5,17.19t-14.83,6q-13.2,0-19.54-5.63t-6.34-18.11V99.47h9.1v43.37q0,9.21,4.4,14.63t12.48,5.42a18.5,18.5,0,0,0,8.18-1.69,13.43,13.43,0,0,0,5.47-4.65,21.76,21.76,0,0,0,3-6.55,29.53,29.53,0,0,0,1-7.77l-1.43-42.76Z"/><path d="M277.07,137.42c1.23.13,2.86,1.17,4.91,3.12a71.21,71.21,0,0,1,6.39,7.06q3.33,4.14,7.62,8.64t8.34,8.13a27.37,27.37,0,0,0,8.64,5.37,13,13,0,0,0,8.6.51v1.85a10.23,10.23,0,0,1-3.58,1.27,43.91,43.91,0,0,1-7.06.93,22.79,22.79,0,0,1-9.31-1.69,25,25,0,0,1-9.1-6q-2.37-2.44-11.16-12.43t-12.48-13.65q-2.44-2.56-4.7-2.56l-2.35.1v26.6h-9.31V100.08h16.67q14,0,20.46,5.16t6.45,14.07a15.88,15.88,0,0,1-4.91,12Q286.27,136,277.07,137.42Zm-15.24-1.64h7.77q7.26,0,11.66-4.65a16.81,16.81,0,0,0,4.4-12q0-7.78-3.89-12.28t-11.25-4.5h-8.69Zm59.74,28.85h-9.31V100.08h9.31Z"/><path d="M373.74,99.47h3.48V164h-1.54l-41.84-53.29L335,164h-3.28V99.47h4.91l38.26,49.2Z"/><path d="M439.51,131.79v22.1c-.2.27-.53.66-1,1.17a25.76,25.76,0,0,1-3.07,2.66,34.75,34.75,0,0,1-5.16,3.38,33.07,33.07,0,0,1-7.32,2.66,38.23,38.23,0,0,1-9.56,1.18,25.46,25.46,0,0,1-10.74-2.41,28.85,28.85,0,0,1-9.16-6.65,32.21,32.21,0,0,1-6.34-10.53,39.48,39.48,0,0,1,0-27.11,32.16,32.16,0,0,1,6.34-10.54,28.85,28.85,0,0,1,9.16-6.65,25.45,25.45,0,0,1,10.74-2.4,33.83,33.83,0,0,1,10.23,1.79,29.77,29.77,0,0,1,9.41,4.75l-4.09,6q-6.56-10.33-15.65-10.33-7.36,0-12.48,9.1t-5.12,21.89q0,13.2,5.12,22.1t13.6,8.9a19.75,19.75,0,0,0,5.78-.82,16.35,16.35,0,0,0,4.45-2,35.51,35.51,0,0,0,3.07-2.31,8.75,8.75,0,0,0,1.84-1.94l.62-.82V131.79Z"/></svg>