<svg id="Ñëîé_1" data-name="Ñëîé 1" xmlns="http://www.w3.org/2000/svg" viewBox="0 0 687.68 143.09"><path d="M126.39,116.62h2.94v3.94a11.37,11.37,0,0,1,3.15-3.19,9,9,0,0,1,4.68-1.34,7.91,7.91,0,0,1,3.16.65,6.74,6.74,0,0,1,2.43,1.73,9.2,9.2,0,0,1,1.64,3.1,11,11,0,0,1,3.67-4.09,8.64,8.64,0,0,1,4.73-1.39,7.36,7.36,0,0,1,4.17,1.2,7,7,0,0,1,2.69,3.33,17.73,17.73,0,0,1,.88,6.42v12.47h-3V127a16.22,16.22,0,0,0-.52-5,4.58,4.58,0,0,0-1.79-2.22,5.33,5.33,0,0,0-3-.84,6.58,6.58,0,0,0-3.9,1.26,7.21,7.21,0,0,0-2.58,3.36,21.11,21.11,0,0,0-.82,7v8.94H142V127.76a20.13,20.13,0,0,0-.51-5.61,4.68,4.68,0,0,0-1.8-2.37,5.13,5.13,0,0,0-3-.9,6.55,6.55,0,0,0-3.81,1.23,7.23,7.23,0,0,0-2.62,3.31,17.68,17.68,0,0,0-.85,6.35v9.68h-2.94Z"/><path d="M195.49,116.62v22.83h-2.9v-3.93a12.48,12.48,0,0,1-4.14,3.38,11.56,11.56,0,0,1-13.31-2.38,11.8,11.8,0,0,1-3.43-8.55,11.58,11.58,0,0,1,3.47-8.44,11.29,11.29,0,0,1,8.33-3.5,10.77,10.77,0,0,1,5.09,1.2,11.51,11.51,0,0,1,4,3.58v-4.19Zm-11.74,2.24a8.88,8.88,0,0,0-7.83,4.59,9.26,9.26,0,0,0-1.23,4.61,9.36,9.36,0,0,0,1.24,4.62,9,9,0,0,0,3.32,3.42,8.69,8.69,0,0,0,4.48,1.23,9.18,9.18,0,0,0,4.57-1.22,8.47,8.47,0,0,0,3.32-3.29,9.33,9.33,0,0,0,1.16-4.67,9.11,9.11,0,0,0-2.61-6.63A8.66,8.66,0,0,0,183.75,118.86Z"/><path d="M208.1,107.8H211v18l10.59-9.21h4.32l-12.55,10.89,13.28,11.94h-4.14L211,129.17v10.28H208.1Z"/><path d="M254.93,131.87l2.48,1.3a13.36,13.36,0,0,1-2.82,3.87,11.09,11.09,0,0,1-3.59,2.23,12.51,12.51,0,0,1-4.51.77,10.91,10.91,0,0,1-8.74-3.66,12.39,12.39,0,0,1-3.15-8.28,12.26,12.26,0,0,1,2.66-7.75,10.93,10.93,0,0,1,9.06-4.32,11.23,11.23,0,0,1,9.32,4.43,12.24,12.24,0,0,1,2.52,7.8H237.62a9.28,9.28,0,0,0,2.54,6.53,8.12,8.12,0,0,0,6.07,2.54,9.64,9.64,0,0,0,3.4-.61,8.79,8.79,0,0,0,2.8-1.61A13.59,13.59,0,0,0,254.93,131.87Zm0-6.15a9.74,9.74,0,0,0-1.71-3.75,8.17,8.17,0,0,0-3-2.27,9.19,9.19,0,0,0-3.89-.86,8.38,8.38,0,0,0-5.78,2.16,9.76,9.76,0,0,0-2.67,4.72Z"/><path d="M288.59,107.21a2.44,2.44,0,1,1-1.69.72A2.3,2.3,0,0,1,288.59,107.21Zm-1.46,9.41h2.94v22.83h-2.94Z"/><path d="M302.19,116.62h2.94v4.09a12.34,12.34,0,0,1,3.91-3.52A9.64,9.64,0,0,1,313.7,116a8.07,8.07,0,0,1,4.54,1.3,7.79,7.79,0,0,1,2.93,3.51,18.48,18.48,0,0,1,.94,6.86v11.75h-2.94V128.56a27.71,27.71,0,0,0-.32-5.27,5.81,5.81,0,0,0-2-3.41,6,6,0,0,0-3.78-1.14,7.23,7.23,0,0,0-4.78,1.76,8.29,8.29,0,0,0-2.78,4.36,30.47,30.47,0,0,0-.42,6.22v8.37h-2.94Z"/><path d="M350.18,116.62h3.12L361,133.26l7.57-16.64h3.15l-10.45,22.83h-.55Z"/><path d="M383.19,107.21a2.43,2.43,0,1,1,0,4.85,2.28,2.28,0,0,1-1.69-.71,2.41,2.41,0,0,1,0-3.42A2.29,2.29,0,0,1,383.19,107.21Zm-1.46,9.41h2.94v22.83h-2.94Z"/><path d="M416,131.87l2.47,1.3a13.52,13.52,0,0,1-2.81,3.87,11.09,11.09,0,0,1-3.59,2.23,12.56,12.56,0,0,1-4.52.77,10.94,10.94,0,0,1-8.74-3.66,12.39,12.39,0,0,1-3.15-8.28,12.22,12.22,0,0,1,2.67-7.75,10.9,10.9,0,0,1,9-4.32,11.24,11.24,0,0,1,9.33,4.43,12.36,12.36,0,0,1,2.52,7.8H398.71a9.28,9.28,0,0,0,2.54,6.53,8.12,8.12,0,0,0,6.07,2.54,9.63,9.63,0,0,0,3.39-.61,8.84,8.84,0,0,0,2.81-1.61A13.85,13.85,0,0,0,416,131.87Zm0-6.15a9.74,9.74,0,0,0-1.71-3.75,8.12,8.12,0,0,0-3-2.27,9.15,9.15,0,0,0-3.88-.86,8.36,8.36,0,0,0-5.78,2.16,9.76,9.76,0,0,0-2.67,4.72Z"/><path d="M433.31,108.14h2.93v8.48h4.66v2.54h-4.66v20.29h-2.93V119.16h-4v-2.54h4Z"/><path d="M451.33,116.62h2.94v4.09a12.21,12.21,0,0,1,3.9-3.52,9.67,9.67,0,0,1,4.66-1.16,8.07,8.07,0,0,1,4.54,1.3,7.79,7.79,0,0,1,2.93,3.51,18.48,18.48,0,0,1,.94,6.86v11.75H468.3V128.56a26.87,26.87,0,0,0-.32-5.27,5.81,5.81,0,0,0-2-3.41,6,6,0,0,0-3.78-1.14,7.19,7.19,0,0,0-4.77,1.76,8.17,8.17,0,0,0-2.78,4.36,29.74,29.74,0,0,0-.42,6.22v8.37h-2.94Z"/><path d="M506.3,116.62v22.83h-2.89v-3.93a12.52,12.52,0,0,1-4.15,3.38,11.54,11.54,0,0,1-13.3-2.38,11.76,11.76,0,0,1-3.43-8.55,11.57,11.57,0,0,1,3.46-8.44,11.3,11.3,0,0,1,8.33-3.5,10.77,10.77,0,0,1,5.09,1.2,11.54,11.54,0,0,1,4,3.58v-4.19Zm-11.74,2.24a8.88,8.88,0,0,0-7.83,4.59,9.25,9.25,0,0,0-1.22,4.61,9.35,9.35,0,0,0,1.23,4.62,9,9,0,0,0,3.32,3.42,8.71,8.71,0,0,0,4.48,1.23,9.18,9.18,0,0,0,4.57-1.22,8.41,8.41,0,0,0,3.32-3.29,9.33,9.33,0,0,0,1.17-4.67,9.11,9.11,0,0,0-2.61-6.63A8.68,8.68,0,0,0,494.56,118.86Z"/><path d="M518.91,116.62h2.94v3.94a11.37,11.37,0,0,1,3.15-3.19,9,9,0,0,1,4.69-1.34,7.9,7.9,0,0,1,3.15.65,6.74,6.74,0,0,1,2.43,1.73,9.2,9.2,0,0,1,1.64,3.1,11,11,0,0,1,3.67-4.09,8.64,8.64,0,0,1,4.73-1.39,7.34,7.34,0,0,1,4.17,1.2,7.09,7.09,0,0,1,2.7,3.33,18,18,0,0,1,.87,6.42v12.47h-3V127a16.22,16.22,0,0,0-.52-5,4.52,4.52,0,0,0-1.79-2.22,5.33,5.33,0,0,0-3-.84,6.58,6.58,0,0,0-3.9,1.26,7.21,7.21,0,0,0-2.58,3.36,21.11,21.11,0,0,0-.82,7v8.94h-2.94V127.76a20.13,20.13,0,0,0-.51-5.61,4.68,4.68,0,0,0-1.8-2.37,5.13,5.13,0,0,0-3-.9,6.55,6.55,0,0,0-3.81,1.23,7.29,7.29,0,0,0-2.62,3.31,17.68,17.68,0,0,0-.85,6.35v9.68h-2.94Z"/><path d="M67,68.42H57.67l.1-55.95-19.64,56H36L8.87,13.18,10,68.42H6.73V3.87h9.1L40.28,54.2,58.08,3.87H67Z"/><path d="M105.54,3.87l23.53,64.55H118.23l-7.67-22.91c-.28-.07-.7-.16-1.28-.26s-1.73-.2-3.43-.3a38.07,38.07,0,0,0-5,0,31.71,31.71,0,0,0-5.73,1,28.1,28.1,0,0,0-6,2.2,20.5,20.5,0,0,0-5.31,4,20.2,20.2,0,0,0-4.15,6.24L76,68.42H72.09L95.93,3.87Zm-23.42,46a20,20,0,0,1,6.44-4.76A23.48,23.48,0,0,1,95.93,43a53.79,53.79,0,0,1,6.8-.36,40.39,40.39,0,0,1,5.17.36l1.84.41L97.15,6.12Z"/><path d="M176.43,3.87h3.48V68.42h-1.53L136.54,15.13l1.12,53.29h-3.27V3.87h4.91l38.26,49.21Z"/><path d="M235.25,3.87V46.12q0,11.16-5,17.19t-14.83,6q-13.2,0-19.54-5.62t-6.34-18.11V3.87h9.1V47.25q0,9.2,4.4,14.63t12.48,5.42a18.58,18.58,0,0,0,8.18-1.69A13.62,13.62,0,0,0,229.17,61a21.57,21.57,0,0,0,3-6.54,29.54,29.54,0,0,0,1-7.78L231.67,3.87Z"/><path d="M284.15,3.87V7.56L254.28,6.12V33.85h17.9V36.1h-17.9V68.42H245V3.87Z"/><path d="M308.4,3.87l23.52,64.55H321.08l-7.67-22.91c-.27-.07-.7-.16-1.28-.26s-1.72-.2-3.43-.3a38.07,38.07,0,0,0-5,0,31.71,31.71,0,0,0-5.73,1,27.81,27.81,0,0,0-6,2.2,20.54,20.54,0,0,0-5.32,4,20,20,0,0,0-4.14,6.24l-3.69,10h-3.89L298.78,3.87ZM285,49.91a20,20,0,0,1,6.44-4.76,23.56,23.56,0,0,1,7.37-2.2,53.89,53.89,0,0,1,6.8-.36,40.39,40.39,0,0,1,5.17.36l1.84.41L300,6.12Z"/><path d="M379,52.67l.36,0a5.72,5.72,0,0,1,.82.26,5.52,5.52,0,0,1,1.07.51,5.17,5.17,0,0,1,1,.81,2.67,2.67,0,0,1,.82,2.51,4.82,4.82,0,0,1-.71,1.89Q376,69.35,361.08,69.34a26.17,26.17,0,0,1-10.85-2.4,29.63,29.63,0,0,1-9.35-6.65,32.38,32.38,0,0,1-6.55-10.54,36.28,36.28,0,0,1-2.51-13.55,37.56,37.56,0,0,1,2.41-13.56,32,32,0,0,1,6.34-10.53,28.81,28.81,0,0,1,9.15-6.65,25.46,25.46,0,0,1,10.74-2.41,34.14,34.14,0,0,1,10.23,1.79,29.94,29.94,0,0,1,9.42,4.76l-4.1,6Q369.47,5.31,360.36,5.3q-7.37,0-12.48,9.11T342.77,36.3q0,12.89,5.62,21.94T362.2,67.3a16.49,16.49,0,0,0,11.67-4.86Q379,57.58,379,52.67Z"/><path d="M383.79,3.87h50.74V7.56L413.86,6.12v62.3h-9.41V6.12L383.79,7.56Z"/><path d="M484.34,3.87V46.12q0,11.16-5,17.19t-14.83,6q-13.2,0-19.54-5.62t-6.34-18.11V3.87h9.1V47.25q0,9.2,4.4,14.63T464.6,67.3a18.58,18.58,0,0,0,8.18-1.69A13.62,13.62,0,0,0,478.26,61a21.57,21.57,0,0,0,3-6.54,29.54,29.54,0,0,0,1-7.78L480.76,3.87Z"/><path d="M518.51,41.83c1.23.13,2.86,1.17,4.91,3.12a69.69,69.69,0,0,1,6.39,7q3.33,4.16,7.63,8.65t8.33,8.13a27.52,27.52,0,0,0,8.65,5.37,13,13,0,0,0,8.59.51V76.5a10,10,0,0,1-3.58,1.28,43.87,43.87,0,0,1-7.06.92A22.46,22.46,0,0,1,543.06,77a24.9,24.9,0,0,1-9.1-6q-2.36-2.46-11.15-12.43T510.33,44.89q-2.46-2.55-4.71-2.55l-2.35.1V69H494V4.49h16.67q14,0,20.46,5.16t6.45,14.07a15.88,15.88,0,0,1-4.91,12Q527.71,40.39,518.51,41.83Zm-15.24-1.64H511q7.26,0,11.66-4.66t4.4-12q0-7.77-3.88-12.27T512,6.74h-8.69ZM563,69H553.7V4.49H563Z"/><path d="M615.18,3.87h3.48V68.42h-1.54L575.28,15.13l1.13,53.29h-3.27V3.87h4.91l38.26,49.21Z"/><path d="M681,36.2V58.3c-.21.27-.53.66-1,1.17a26.35,26.35,0,0,1-3.06,2.66,36.21,36.21,0,0,1-5.17,3.38,33.67,33.67,0,0,1-7.31,2.66,38.36,38.36,0,0,1-9.57,1.17,25.45,25.45,0,0,1-10.74-2.4A28.85,28.85,0,0,1,635,60.29a32.16,32.16,0,0,1-6.34-10.54,37.68,37.68,0,0,1-2.4-13.55,37.77,37.77,0,0,1,2.4-13.56A32.21,32.21,0,0,1,635,12.11a28.85,28.85,0,0,1,9.16-6.65,25.46,25.46,0,0,1,10.74-2.41A34.14,34.14,0,0,1,665.1,4.84a29.78,29.78,0,0,1,9.41,4.76l-4.09,6Q663.88,5.31,654.77,5.3q-7.37,0-12.48,9.11T637.17,36.3q0,13.2,5.12,22.1t13.6,8.9a20,20,0,0,0,5.78-.82,16.34,16.34,0,0,0,4.45-2,34,34,0,0,0,3.07-2.3A9,9,0,0,0,671,60.24l.62-.82V36.2Z"/></svg>