<svg id="Ñëîé_1" data-name="Ñëîé 1" xmlns="http://www.w3.org/2000/svg" viewBox="0 0 451.78 182.79"><defs><style>.cls-1,.cls-2{stroke:#000;stroke-linecap:round;stroke-linejoin:round;}.cls-1{stroke-width:2px;}.cls-2{stroke-width:4px;}</style></defs><path class="cls-1" d="M271,16.39h2.48v3.32A9.52,9.52,0,0,1,276.15,17a7.46,7.46,0,0,1,3.94-1.14,6.67,6.67,0,0,1,2.66.55,5.69,5.69,0,0,1,2.05,1.46,7.91,7.91,0,0,1,1.38,2.61,9.28,9.28,0,0,1,3.09-3.44,7.37,7.37,0,0,1,4-1.18,6.26,6.26,0,0,1,3.52,1,6,6,0,0,1,2.27,2.81,15.16,15.16,0,0,1,.74,5.42v10.5h-2.53V25.13a13.91,13.91,0,0,0-.44-4.26A3.87,3.87,0,0,0,295.31,19a4.52,4.52,0,0,0-2.55-.71,5.49,5.49,0,0,0-3.28,1.06,6.09,6.09,0,0,0-2.18,2.83,17.89,17.89,0,0,0-.69,5.91v7.53h-2.47V25.78a16.78,16.78,0,0,0-.44-4.73,4,4,0,0,0-1.51-2,4.37,4.37,0,0,0-2.56-.75,5.5,5.5,0,0,0-3.21,1,6.05,6.05,0,0,0-2.21,2.79,14.94,14.94,0,0,0-.72,5.36v8.15H271Z"/><path class="cls-1" d="M329.25,16.39V35.63H326.8V32.32a10.48,10.48,0,0,1-3.49,2.85,9.73,9.73,0,0,1-11.21-2,9.9,9.9,0,0,1-2.89-7.2,9.74,9.74,0,0,1,2.92-7.11,9.5,9.5,0,0,1,7-3,9.11,9.11,0,0,1,4.29,1,9.7,9.7,0,0,1,3.36,3V16.39Zm-9.9,1.89a7.46,7.46,0,0,0-3.82,1,7.54,7.54,0,0,0-2.78,2.85,7.81,7.81,0,0,0,0,7.77,7.63,7.63,0,0,0,2.8,2.89,7.31,7.31,0,0,0,3.77,1,7.74,7.74,0,0,0,3.85-1,7.11,7.11,0,0,0,2.8-2.77,7.86,7.86,0,0,0,1-3.94,7.62,7.62,0,0,0-2.2-5.58A7.26,7.26,0,0,0,319.35,18.28Z"/><path class="cls-1" d="M339.87,9h2.47V24.15l8.93-7.76h3.63l-10.57,9.18,11.19,10.06H352L342.34,27v8.66h-2.47Z"/><path class="cls-1" d="M379.34,29.25l2.08,1.09a11.25,11.25,0,0,1-2.37,3.26,9.45,9.45,0,0,1-3,1.88,10.55,10.55,0,0,1-3.8.65A9.18,9.18,0,0,1,364.86,33a10.42,10.42,0,0,1-2.66-7,10.27,10.27,0,0,1,2.25-6.52,9.19,9.19,0,0,1,7.63-3.65,9.5,9.5,0,0,1,7.86,3.74,10.39,10.39,0,0,1,2.12,6.57H364.75a7.81,7.81,0,0,0,2.14,5.5A6.84,6.84,0,0,0,372,33.85a8.27,8.27,0,0,0,2.86-.52A7.63,7.63,0,0,0,377.23,32,11.92,11.92,0,0,0,379.34,29.25Zm0-5.18a8.11,8.11,0,0,0-1.45-3.17,6.75,6.75,0,0,0-2.5-1.91,7.74,7.74,0,0,0-3.28-.73,7,7,0,0,0-4.87,1.83,8.24,8.24,0,0,0-2.25,4Z"/><path class="cls-1" d="M407.7,8.47a2,2,0,0,1,1.45.6,2.05,2.05,0,0,1,0,2.88,2,2,0,0,1-1.45.6,1.92,1.92,0,0,1-1.42-.6,2,2,0,0,1,0-2.88A1.92,1.92,0,0,1,407.7,8.47Zm-1.23,7.92H409V35.63h-2.48Z"/><path class="cls-1" d="M419.17,16.39h2.47v3.45a10.32,10.32,0,0,1,3.29-3,8,8,0,0,1,3.93-1,6.85,6.85,0,0,1,3.83,1.1,6.57,6.57,0,0,1,2.46,3,15.65,15.65,0,0,1,.8,5.79v9.9h-2.48V26.45A23.18,23.18,0,0,0,433.2,22a4.9,4.9,0,0,0-1.65-2.87,5,5,0,0,0-3.19-1,6.1,6.1,0,0,0-4,1.48A6.89,6.89,0,0,0,422,23.34a25.09,25.09,0,0,0-.36,5.23v7.06h-2.47Z"/><path class="cls-1" d="M270,50.42h2.63l6.46,14,6.38-14h2.65l-8.8,19.24h-.46Z"/><path class="cls-1" d="M297.86,42.5a2,2,0,1,1-1.43.6A2,2,0,0,1,297.86,42.5Zm-1.23,7.92h2.48V69.66h-2.48Z"/><path class="cls-1" d="M325.52,63.28l2.09,1.09a11.63,11.63,0,0,1-2.37,3.26,9.56,9.56,0,0,1-3,1.88,10.57,10.57,0,0,1-3.81.65A9.18,9.18,0,0,1,311,67.07a10.42,10.42,0,0,1-2.66-7,10.27,10.27,0,0,1,2.25-6.52,9.2,9.2,0,0,1,7.63-3.65,9.5,9.5,0,0,1,7.86,3.74,10.45,10.45,0,0,1,2.13,6.57H310.93a7.85,7.85,0,0,0,2.14,5.5,6.83,6.83,0,0,0,5.12,2.14,8.25,8.25,0,0,0,2.86-.51A7.41,7.41,0,0,0,323.41,66,11.65,11.65,0,0,0,325.52,63.28Zm0-5.19a8.2,8.2,0,0,0-1.44-3.16A6.79,6.79,0,0,0,321.57,53a7.72,7.72,0,0,0-3.27-.73,7,7,0,0,0-4.87,1.83,8.25,8.25,0,0,0-2.25,4Z"/><path class="cls-1" d="M340.09,43.27h2.48v7.15h3.92v2.14h-3.92v17.1h-2.48V52.56h-3.38V50.42h3.38Z"/><path class="cls-1" d="M355.28,50.42h2.47v3.45a10.32,10.32,0,0,1,3.29-3,8,8,0,0,1,3.93-1A6.85,6.85,0,0,1,368.8,51,6.57,6.57,0,0,1,371.26,54a15.65,15.65,0,0,1,.8,5.79v9.9h-2.48V60.48a23.18,23.18,0,0,0-.27-4.44,4.9,4.9,0,0,0-1.65-2.87,5,5,0,0,0-3.19-1,6.1,6.1,0,0,0-4,1.48,6.89,6.89,0,0,0-2.34,3.68,25.09,25.09,0,0,0-.36,5.23v7.06h-2.47Z"/><path class="cls-1" d="M401.61,50.42V69.66h-2.45V66.35a10.48,10.48,0,0,1-3.49,2.85,9.73,9.73,0,0,1-11.21-2,9.9,9.9,0,0,1-2.89-7.2,9.74,9.74,0,0,1,2.92-7.11,9.5,9.5,0,0,1,7-3,9.11,9.11,0,0,1,4.29,1,9.61,9.61,0,0,1,3.36,3V50.42Zm-9.9,1.89a7.51,7.51,0,0,0-6.6,3.87,7.81,7.81,0,0,0,0,7.77,7.63,7.63,0,0,0,2.8,2.89,7.3,7.3,0,0,0,3.77,1,7.73,7.73,0,0,0,3.85-1,7.11,7.11,0,0,0,2.8-2.77,7.86,7.86,0,0,0,1-3.94,7.62,7.62,0,0,0-2.2-5.58A7.26,7.26,0,0,0,391.71,52.31Z"/><path class="cls-1" d="M412.23,50.42h2.48v3.32a9.5,9.5,0,0,1,2.65-2.68,7.49,7.49,0,0,1,3.95-1.14,6.7,6.7,0,0,1,2.66.55,5.78,5.78,0,0,1,2,1.46,7.91,7.91,0,0,1,1.38,2.61,9,9,0,0,1,3.09-3.44,7.32,7.32,0,0,1,4-1.18,6.28,6.28,0,0,1,3.52,1,6,6,0,0,1,2.26,2.81,14.94,14.94,0,0,1,.74,5.42v10.5h-2.53V59.16A13.59,13.59,0,0,0,438,54.9a3.79,3.79,0,0,0-1.5-1.86,4.52,4.52,0,0,0-2.55-.71,5.54,5.54,0,0,0-3.29,1.06,6.07,6.07,0,0,0-2.17,2.83,17.89,17.89,0,0,0-.69,5.91v7.53h-2.48V59.81a16.89,16.89,0,0,0-.43-4.73,4,4,0,0,0-1.51-2,4.4,4.4,0,0,0-2.57-.75,5.54,5.54,0,0,0-3.21,1,6.18,6.18,0,0,0-2.21,2.79,15,15,0,0,0-.71,5.36v8.15h-2.48Z"/><path class="cls-2" d="M70,74.49H60.65l.1-55.95-19.64,56H39L11.85,19.25,13,74.49H9.7V9.94h9.11L43.26,60.27,61.06,9.94H70Z"/><path class="cls-2" d="M108.52,9.94l23.53,64.55H121.21l-7.68-22.91c-.27-.07-.7-.16-1.28-.26s-1.72-.2-3.42-.31a41.87,41.87,0,0,0-5,0,32.74,32.74,0,0,0-5.73,1,27.38,27.38,0,0,0-6,2.2,20.54,20.54,0,0,0-5.32,4,20,20,0,0,0-4.14,6.24L79,74.49H75.07L98.9,9.94ZM85.1,56a20,20,0,0,1,6.44-4.76A23.5,23.5,0,0,1,98.9,49a54,54,0,0,1,6.81-.36,38.33,38.33,0,0,1,5.16.36l1.85.41L100.13,12.19Z"/><path class="cls-2" d="M179.41,9.94h3.48V74.49h-1.53l-41.84-53.3,1.12,53.3h-3.27V9.94h4.91l38.26,49.21Z"/><path class="cls-2" d="M238.23,9.94V52.19q0,11.14-5,17.19t-14.83,6q-13.2,0-19.54-5.62t-6.34-18.11V9.94h9.1V53.32q0,9.2,4.4,14.62t12.48,5.43a18.64,18.64,0,0,0,8.18-1.69A13.62,13.62,0,0,0,232.15,67a21.93,21.93,0,0,0,3-6.54,29.55,29.55,0,0,0,1-7.78L234.65,9.94Z"/><path class="cls-2" d="M48.88,104.71v3.69L19,107v27.73h17.9v2.25H19v32.32H9.7V104.71Z"/><path class="cls-2" d="M73.13,104.71l23.53,64.55H85.81l-7.67-22.91c-.27-.07-.7-.16-1.28-.26s-1.72-.2-3.43-.3a38.07,38.07,0,0,0-5,0,31.71,31.71,0,0,0-5.73,1,28,28,0,0,0-6,2.2,20.54,20.54,0,0,0-5.32,4,20,20,0,0,0-4.14,6.24l-3.69,10H39.68l23.83-64.55Zm-23.43,46A19.91,19.91,0,0,1,56.15,146a23.42,23.42,0,0,1,7.36-2.2,54,54,0,0,1,6.8-.36,38.63,38.63,0,0,1,5.17.36l1.84.41L64.74,107Z"/><path class="cls-2" d="M143.71,153.51l.36.05a5.72,5.72,0,0,1,.82.26,5.64,5.64,0,0,1,2.1,1.32,2.69,2.69,0,0,1,.81,2.51,4.67,4.67,0,0,1-.71,1.89q-6.34,10.65-21.28,10.64a26.1,26.1,0,0,1-10.84-2.4,29.56,29.56,0,0,1-9.36-6.65,32.38,32.38,0,0,1-6.55-10.54A36.28,36.28,0,0,1,96.55,137,37.56,37.56,0,0,1,99,123.48,32,32,0,0,1,105.3,113a28.74,28.74,0,0,1,9.16-6.65,25.39,25.39,0,0,1,10.74-2.41,34.19,34.19,0,0,1,10.23,1.79,29.89,29.89,0,0,1,9.41,4.76l-4.09,6q-6.56-10.33-15.66-10.34-7.36,0-12.48,9.11t-5.11,21.89q0,12.88,5.63,21.94t13.81,9.06a16.47,16.47,0,0,0,11.66-4.86Q143.71,158.42,143.71,153.51Z"/><path class="cls-2" d="M148.52,104.71h50.74v3.69L178.59,107v62.3h-9.41V107l-20.66,1.44Z"/><path class="cls-2" d="M249.08,104.71V147q0,11.16-5,17.19t-14.83,6q-13.2,0-19.54-5.62t-6.34-18.11V104.71h9.1v43.38q0,9.19,4.4,14.62t12.48,5.43a18.65,18.65,0,0,0,8.19-1.69,13.66,13.66,0,0,0,5.47-4.66,22,22,0,0,0,3-6.54,30,30,0,0,0,1-7.78l-1.43-42.76Z"/><path class="cls-2" d="M283.24,142.66q1.85.21,4.91,3.13a70.91,70.91,0,0,1,6.4,7.05q3.31,4.16,7.62,8.65t8.33,8.13a27.52,27.52,0,0,0,8.65,5.37,13,13,0,0,0,8.59.51v1.84a10,10,0,0,1-3.58,1.28,43.87,43.87,0,0,1-7.06.92,22.49,22.49,0,0,1-9.31-1.69,24.9,24.9,0,0,1-9.1-6q-2.35-2.46-11.15-12.43t-12.48-13.66q-2.46-2.55-4.71-2.55l-2.35.1v26.6h-9.31V105.33h16.67q14,0,20.46,5.16t6.45,14.07a15.88,15.88,0,0,1-4.91,12Q292.45,141.23,283.24,142.66ZM268,141h7.77c4.85,0,8.73-1.55,11.67-4.66s4.39-7.11,4.39-12q0-7.77-3.88-12.27t-11.26-4.5H268Zm59.74,28.85h-9.31V105.33h9.31Z"/><path class="cls-2" d="M379.91,104.71h3.48v64.55h-1.53L340,116l1.12,53.3h-3.27V104.71h4.91L381,153.92Z"/><path class="cls-2" d="M445.69,137v22.09c-.21.28-.53.67-1,1.18a27.71,27.71,0,0,1-3.07,2.66,36.21,36.21,0,0,1-5.17,3.38,33.67,33.67,0,0,1-7.31,2.66,38.36,38.36,0,0,1-9.57,1.17,25.45,25.45,0,0,1-10.74-2.4,28.7,28.7,0,0,1-9.15-6.65,32.18,32.18,0,0,1-6.35-10.54,39.48,39.48,0,0,1,0-27.11A32.23,32.23,0,0,1,399.71,113a28.7,28.7,0,0,1,9.15-6.65,25.46,25.46,0,0,1,10.74-2.41,34.14,34.14,0,0,1,10.23,1.79,29.78,29.78,0,0,1,9.41,4.76l-4.09,6q-6.54-10.33-15.65-10.34-7.37,0-12.48,9.11t-5.12,21.89q0,13.2,5.12,22.1t13.61,8.9a20,20,0,0,0,5.77-.82,16.56,16.56,0,0,0,4.46-2,35.28,35.28,0,0,0,3.06-2.3,9.58,9.58,0,0,0,1.85-1.94l.61-.82V137Z"/></svg>