<svg id="Ñëîé_1" data-name="Ñëîé 1" xmlns="http://www.w3.org/2000/svg" viewBox="0 0 687.68 143.09"><path d="M129,106.89h2.94v3.94a11.37,11.37,0,0,1,3.15-3.19,9,9,0,0,1,4.68-1.34,7.83,7.83,0,0,1,3.15.65,6.7,6.7,0,0,1,2.44,1.73,9.2,9.2,0,0,1,1.64,3.1,10.94,10.94,0,0,1,3.66-4.09,8.7,8.7,0,0,1,4.74-1.39,7.44,7.44,0,0,1,4.17,1.19,7.09,7.09,0,0,1,2.69,3.34,17.73,17.73,0,0,1,.88,6.42v12.47h-3V117.25a16.18,16.18,0,0,0-.52-5,4.58,4.58,0,0,0-1.79-2.22,5.33,5.33,0,0,0-3-.84,6.53,6.53,0,0,0-3.9,1.26,7.29,7.29,0,0,0-2.59,3.36,21.41,21.41,0,0,0-.81,7v8.94h-2.94V118a20.13,20.13,0,0,0-.51-5.61,4.8,4.8,0,0,0-1.8-2.38,5.21,5.21,0,0,0-3-.89,6.55,6.55,0,0,0-3.81,1.23,7.23,7.23,0,0,0-2.62,3.31,17.68,17.68,0,0,0-.85,6.35v9.68H129Z"/><path d="M163.09,130.72h-3a1,1,0,0,1-1-1V117.25a14.8,14.8,0,0,0-.46-4.69,3.48,3.48,0,0,0-1.4-1.73,4.29,4.29,0,0,0-2.47-.68,5.49,5.49,0,0,0-3.32,1.08,6.15,6.15,0,0,0-2.23,2.9,20.46,20.46,0,0,0-.75,6.65v8.94a1,1,0,0,1-1,1h-2.94a1,1,0,0,1-1-1V118a18.47,18.47,0,0,0-.46-5.29,3.67,3.67,0,0,0-1.42-1.87,4.19,4.19,0,0,0-2.47-.72,5.58,5.58,0,0,0-3.24,1,6.26,6.26,0,0,0-2.27,2.86,17.16,17.16,0,0,0-.77,6v9.68a1,1,0,0,1-1,1H129a1,1,0,0,1-1-1V106.89a1,1,0,0,1,1-1h2.94a1,1,0,0,1,1,1v1.2a9.42,9.42,0,0,1,1.62-1.3,10,10,0,0,1,5.21-1.49,8.91,8.91,0,0,1,3.55.73,7.4,7.4,0,0,1,3.86,3.6,11.07,11.07,0,0,1,3-2.78,9.67,9.67,0,0,1,5.27-1.55,8.4,8.4,0,0,1,4.72,1.36,8.18,8.18,0,0,1,3.07,3.79,18.62,18.62,0,0,1,1,6.8v12.47A1,1,0,0,1,163.09,130.72Zm-2-2h1V117.25a17.09,17.09,0,0,0-.8-6,6.11,6.11,0,0,0-2.32-2.88,6.38,6.38,0,0,0-3.62-1,7.57,7.57,0,0,0-4.2,1.24,9.82,9.82,0,0,0-3.32,3.71,1,1,0,0,1-1,.52,1,1,0,0,1-.87-.67,8.29,8.29,0,0,0-1.44-2.76,5.7,5.7,0,0,0-2.09-1.47,7.52,7.52,0,0,0-6.92.63,10.54,10.54,0,0,0-2.85,2.91,1,1,0,0,1-1.12.37,1,1,0,0,1-.69-1v-2.94H130v20.83h.94V120a18.56,18.56,0,0,1,.92-6.73,8.31,8.31,0,0,1,3-3.75,7.54,7.54,0,0,1,4.38-1.41,6.18,6.18,0,0,1,3.61,1.07,5.69,5.69,0,0,1,2.17,2.87,20.68,20.68,0,0,1,.57,5.94v10.69h.94v-7.94a22,22,0,0,1,.88-7.37,8.2,8.2,0,0,1,2.94-3.81,7.56,7.56,0,0,1,4.48-1.45,6.33,6.33,0,0,1,3.57,1,5.5,5.5,0,0,1,2.17,2.69,16.75,16.75,0,0,1,.59,5.4Z"/><path d="M198.05,106.89v22.83h-2.9v-3.93a12.48,12.48,0,0,1-4.14,3.38,11.56,11.56,0,0,1-13.31-2.38,11.8,11.8,0,0,1-3.43-8.55,11.61,11.61,0,0,1,3.46-8.44,11.33,11.33,0,0,1,8.34-3.5,10.88,10.88,0,0,1,5.09,1.19,11.65,11.65,0,0,1,4,3.59v-4.19Zm-11.74,2.24a8.88,8.88,0,0,0-7.83,4.59,9.24,9.24,0,0,0,0,9.23,9,9,0,0,0,3.32,3.42,8.66,8.66,0,0,0,4.48,1.23,9.21,9.21,0,0,0,4.57-1.22,8.54,8.54,0,0,0,3.32-3.29,9.43,9.43,0,0,0,1.16-4.67,9.11,9.11,0,0,0-2.61-6.63A8.66,8.66,0,0,0,186.31,109.13Z"/><path d="M186,131.31a12.17,12.17,0,0,1-9-3.82,12.8,12.8,0,0,1-3.72-9.25A12.58,12.58,0,0,1,177,109.1a12.34,12.34,0,0,1,9-3.8,11.8,11.8,0,0,1,5.55,1.31,11.52,11.52,0,0,1,2.53,1.81v-1.53a1,1,0,0,1,1-1h2.9a1,1,0,0,1,1,1v22.83a1,1,0,0,1-1,1h-2.9a1,1,0,0,1-1-1v-1.46a12.76,12.76,0,0,1-2.7,1.81A12.24,12.24,0,0,1,186,131.31Zm.09-24a10.22,10.22,0,0,0-7.62,3.21,10.5,10.5,0,0,0-3.18,7.73,10.72,10.72,0,0,0,3.15,7.85,10.07,10.07,0,0,0,7.56,3.22,10.34,10.34,0,0,0,4.59-1,11.69,11.69,0,0,0,3.81-3.12,1,1,0,0,1,1.77.63v2.93h.9V107.89h-.9v3.19a1,1,0,0,1-1.81.59,10.66,10.66,0,0,0-3.65-3.29A9.81,9.81,0,0,0,186.07,107.3Zm.22,21.3a9.77,9.77,0,0,1-5-1.36,10,10,0,0,1-3.68-3.81,10.21,10.21,0,0,1,0-10.2,9.85,9.85,0,0,1,8.7-5.1,9.67,9.67,0,0,1,7.14,3,10.11,10.11,0,0,1,2.89,7.33,10.37,10.37,0,0,1-1.29,5.16,9.46,9.46,0,0,1-3.7,3.67A10.15,10.15,0,0,1,186.29,128.6Zm0-18.47a7.85,7.85,0,0,0-7,4.08,8.25,8.25,0,0,0,0,8.25,8,8,0,0,0,11,3.05,7.48,7.48,0,0,0,2.94-2.91,8.49,8.49,0,0,0,1-4.18,8.09,8.09,0,0,0-2.32-5.93A7.62,7.62,0,0,0,186.31,110.13Z"/><path d="M210.66,98.07h2.93v18l10.59-9.21h4.31l-12.55,10.89,13.29,11.94h-4.14l-11.5-10.28v10.28h-2.93Z"/><path d="M229.23,130.72h-4.14a1,1,0,0,1-.66-.26l-9.84-8.79v8a1,1,0,0,1-1,1h-2.93a1,1,0,0,1-1-1V98.07a1,1,0,0,1,1-1h2.93a1,1,0,0,1,1,1V113.9l8.93-7.77a1,1,0,0,1,.66-.24h4.31a1,1,0,0,1,.66,1.75l-11.7,10.15L229.9,129a1,1,0,0,1,.26,1.11A1,1,0,0,1,229.23,130.72Zm-3.76-2h1.15l-11.35-10.2a1,1,0,0,1-.33-.75,1,1,0,0,1,.35-.75l10.53-9.13h-1.27l-10.3,9a1,1,0,0,1-1.66-.75v-17h-.93v29.65h.93v-9.28a1,1,0,0,1,1.67-.75Z"/><path d="M257.49,122.14l2.48,1.3a13.54,13.54,0,0,1-2.82,3.87,11.09,11.09,0,0,1-3.59,2.23,12.56,12.56,0,0,1-4.52.77,10.88,10.88,0,0,1-8.73-3.67,12.49,12.49,0,0,1-.49-16,10.91,10.91,0,0,1,9.05-4.32,11.24,11.24,0,0,1,9.33,4.43,12.36,12.36,0,0,1,2.52,7.8H240.18a9.28,9.28,0,0,0,2.54,6.53,8.12,8.12,0,0,0,6.07,2.54,9.63,9.63,0,0,0,3.39-.61,8.84,8.84,0,0,0,2.81-1.61A13.85,13.85,0,0,0,257.49,122.14Zm0-6.15a9.67,9.67,0,0,0-1.71-3.75,8,8,0,0,0-3-2.27,9.11,9.11,0,0,0-3.88-.86,8.38,8.38,0,0,0-5.78,2.16,9.76,9.76,0,0,0-2.67,4.72Z"/><path d="M249,131.31a11.91,11.91,0,0,1-9.49-4,13.42,13.42,0,0,1-3.4-8.93A13.26,13.26,0,0,1,239,110a11.93,11.93,0,0,1,9.84-4.7A12.29,12.29,0,0,1,259,110.11a13.4,13.4,0,0,1,2.73,8.41,1,1,0,0,1-.29.72,1,1,0,0,1-.71.29H241.24a8,8,0,0,0,2.2,4.83,7.07,7.07,0,0,0,5.35,2.24,8.61,8.61,0,0,0,3.05-.55,8,8,0,0,0,2.49-1.42,12.7,12.7,0,0,0,2.3-3,1,1,0,0,1,1.33-.37l2.47,1.3a1,1,0,0,1,.43,1.34,14.6,14.6,0,0,1-3,4.14,12.27,12.27,0,0,1-3.91,2.43A13.43,13.43,0,0,1,249,131.31Zm-.17-24a9.87,9.87,0,0,0-8.26,3.94,11.49,11.49,0,0,0,.45,14.75,9.89,9.89,0,0,0,8,3.32,11.7,11.7,0,0,0,4.16-.7,10.22,10.22,0,0,0,3.27-2,11.52,11.52,0,0,0,2.13-2.71l-.75-.4a12.9,12.9,0,0,1-2.21,2.68,10,10,0,0,1-3.11,1.79,10.89,10.89,0,0,1-3.74.67,9.11,9.11,0,0,1-6.79-2.85,10.32,10.32,0,0,1-2.82-7.2,1,1,0,0,1,.28-.72,1,1,0,0,1,.72-.3h19.5a11.07,11.07,0,0,0-2.26-6.18A10.23,10.23,0,0,0,248.87,107.3Zm8.62,9.69h-17a1,1,0,0,1-.8-.39,1,1,0,0,1-.16-.88,10.74,10.74,0,0,1,3-5.19,9.35,9.35,0,0,1,6.45-2.42,10.21,10.21,0,0,1,4.31,1,9.34,9.34,0,0,1,3.33,2.55,11,11,0,0,1,1.9,4.14,1,1,0,0,1-1,1.24Zm-15.63-2h14.28a7.64,7.64,0,0,0-1.14-2.13,7.1,7.1,0,0,0-2.62-2,8.13,8.13,0,0,0-3.46-.77,7.29,7.29,0,0,0-5.11,1.91A7.76,7.76,0,0,0,241.86,115Z"/><path d="M291.15,97.48a2.43,2.43,0,0,1,1.71,4.14,2.33,2.33,0,0,1-1.71.71,2.42,2.42,0,0,1-1.69-4.13A2.28,2.28,0,0,1,291.15,97.48Zm-1.46,9.41h2.94v22.83h-2.94Z"/><path d="M292.63,130.72h-2.94a1,1,0,0,1-1-1V106.89a1,1,0,0,1,1-1h2.94a1,1,0,0,1,1,1v22.83A1,1,0,0,1,292.63,130.72Zm-1.94-2h.94V107.89h-.94Zm.46-25.39a3.43,3.43,0,0,1-3.4-3.41,3.32,3.32,0,0,1,1-2.43,3.43,3.43,0,0,1,4.82,0,3.32,3.32,0,0,1,1,2.43,3.26,3.26,0,0,1-1,2.4A3.35,3.35,0,0,1,291.15,103.33Zm0-4.85a1.35,1.35,0,0,0-1,.42,1.38,1.38,0,0,0-.41,1,1.33,1.33,0,0,0,.41,1,1.36,1.36,0,0,0,2,0,1.3,1.3,0,0,0,.42-1,1.43,1.43,0,0,0-1.42-1.44Z"/><path d="M304.75,106.89h2.94V111a12.42,12.42,0,0,1,3.9-3.52,9.67,9.67,0,0,1,4.66-1.16,8.11,8.11,0,0,1,4.55,1.3,7.8,7.8,0,0,1,2.92,3.5,18.54,18.54,0,0,1,.95,6.87v11.75h-2.94V118.83a26.61,26.61,0,0,0-.33-5.27,5.8,5.8,0,0,0-1.95-3.41,6,6,0,0,0-3.78-1.14,7.23,7.23,0,0,0-4.78,1.76,8.29,8.29,0,0,0-2.78,4.36,30.47,30.47,0,0,0-.42,6.22v8.37h-2.94Z"/><path d="M324.67,130.72h-2.94a1,1,0,0,1-1-1V118.83a24.47,24.47,0,0,0-.3-5,4.81,4.81,0,0,0-1.61-2.87,5,5,0,0,0-3.15-.92,6.25,6.25,0,0,0-4.14,1.53,7.2,7.2,0,0,0-2.45,3.84,29.62,29.62,0,0,0-.39,6v8.37a1,1,0,0,1-1,1h-2.94a1,1,0,0,1-1-1V106.89a1,1,0,0,1,1-1h2.94a1,1,0,0,1,1,1v1.47a12.19,12.19,0,0,1,2.43-1.78,10.61,10.61,0,0,1,5.13-1.28,9.17,9.17,0,0,1,5.1,1.46,8.76,8.76,0,0,1,3.29,3.95,19.22,19.22,0,0,1,1,7.26v11.75A1,1,0,0,1,324.67,130.72Zm-1.94-2h.94V118a17.79,17.79,0,0,0-.86-6.47,6.73,6.73,0,0,0-2.56-3.06,7,7,0,0,0-4-1.14,8.66,8.66,0,0,0-4.18,1,11.49,11.49,0,0,0-3.58,3.24,1,1,0,0,1-1.8-.6v-3.09h-.94v20.83h.94v-7.37a31,31,0,0,1,.45-6.46,9.31,9.31,0,0,1,3.11-4.89,8.27,8.27,0,0,1,5.42-2,7,7,0,0,1,4.4,1.35,6.84,6.84,0,0,1,2.31,4,27.73,27.73,0,0,1,.35,5.49Z"/><path d="M352.74,106.89h3.12l7.67,16.64,7.57-16.64h3.15l-10.46,22.83h-.54Z"/><path d="M363.79,130.72h-.54a1,1,0,0,1-.91-.58L351.83,107.3a1,1,0,0,1,.06-1,1,1,0,0,1,.85-.46h3.12a1,1,0,0,1,.91.58l6.75,14.66,6.67-14.66a1,1,0,0,1,.91-.58h3.15a1,1,0,0,1,.91,1.41L364.7,130.13A1,1,0,0,1,363.79,130.72Zm-9.49-22.83,9.22,20,9.17-20h-.95l-7.3,16a1,1,0,0,1-.91.59h0a1,1,0,0,1-.91-.58l-7.4-16.06Z"/><path d="M385.75,97.48a2.43,2.43,0,0,1,1.71,4.14,2.39,2.39,0,0,1-3.4,0,2.43,2.43,0,0,1,1.69-4.14Zm-1.46,9.41h2.94v22.83h-2.94Z"/><path d="M387.23,130.72h-2.94a1,1,0,0,1-1-1V106.89a1,1,0,0,1,1-1h2.94a1,1,0,0,1,1,1v22.83A1,1,0,0,1,387.23,130.72Zm-1.94-2h.94V107.89h-.94Zm.46-25.39a3.43,3.43,0,0,1-3.4-3.41,3.32,3.32,0,0,1,1-2.43,3.43,3.43,0,0,1,4.82,0,3.32,3.32,0,0,1,1,2.43,3.26,3.26,0,0,1-1,2.4A3.33,3.33,0,0,1,385.75,103.33Zm0-4.85a1.32,1.32,0,0,0-1,.42,1.35,1.35,0,0,0-.42,1,1.3,1.3,0,0,0,.42,1,1.35,1.35,0,0,0,2,0,1.3,1.3,0,0,0,.42-1,1.43,1.43,0,0,0-1.42-1.44Z"/><path d="M418.58,122.14l2.47,1.3a13.52,13.52,0,0,1-2.81,3.87,11.2,11.2,0,0,1-3.59,2.23,12.56,12.56,0,0,1-4.52.77,10.9,10.9,0,0,1-8.74-3.67,12.35,12.35,0,0,1-3.15-8.27,12.22,12.22,0,0,1,2.67-7.75,10.9,10.9,0,0,1,9-4.32,11.25,11.25,0,0,1,9.33,4.43,12.36,12.36,0,0,1,2.52,7.8H401.26a9.33,9.33,0,0,0,2.55,6.53,8.11,8.11,0,0,0,6.07,2.54,9.63,9.63,0,0,0,3.39-.61,8.84,8.84,0,0,0,2.81-1.61A13.85,13.85,0,0,0,418.58,122.14Zm0-6.15a9.82,9.82,0,0,0-1.72-3.75,8.06,8.06,0,0,0-3-2.27,9.16,9.16,0,0,0-3.89-.86,8.36,8.36,0,0,0-5.77,2.16,9.76,9.76,0,0,0-2.67,4.72Z"/><path d="M410.13,131.31a11.93,11.93,0,0,1-9.5-4,13.41,13.41,0,0,1-3.39-8.93,13.26,13.26,0,0,1,2.88-8.37,11.9,11.9,0,0,1,9.84-4.7,12.26,12.26,0,0,1,10.11,4.81,13.34,13.34,0,0,1,2.74,8.41,1,1,0,0,1-1,1H402.33a8,8,0,0,0,2.19,4.83,7.09,7.09,0,0,0,5.36,2.24,8.65,8.65,0,0,0,3.05-.55,8.11,8.11,0,0,0,2.49-1.42,13,13,0,0,0,2.3-3,1,1,0,0,1,1.32-.37l2.48,1.3a1,1,0,0,1,.42,1.34,14.41,14.41,0,0,1-3,4.14,12.05,12.05,0,0,1-3.91,2.43A13.34,13.34,0,0,1,410.13,131.31Zm-.17-24a9.86,9.86,0,0,0-8.26,3.94,11.49,11.49,0,0,0,.45,14.75,9.89,9.89,0,0,0,8,3.32,11.7,11.7,0,0,0,4.16-.7,10.45,10.45,0,0,0,3.27-2,11.52,11.52,0,0,0,2.13-2.71l-.76-.4a12.9,12.9,0,0,1-2.2,2.68,10.06,10.06,0,0,1-3.11,1.79,10.93,10.93,0,0,1-3.74.67,9.1,9.1,0,0,1-6.79-2.85,10.29,10.29,0,0,1-2.83-7.2,1,1,0,0,1,.29-.72,1,1,0,0,1,.71-.3h19.51a11,11,0,0,0-2.27-6.18A10.2,10.2,0,0,0,410,107.3Zm8.62,9.69h-17a1,1,0,0,1-1-1.27,10.66,10.66,0,0,1,3-5.19,9.34,9.34,0,0,1,6.44-2.42,10.18,10.18,0,0,1,4.31,1,9.17,9.17,0,0,1,3.33,2.55,10.82,10.82,0,0,1,1.91,4.14,1,1,0,0,1-.18.86A1,1,0,0,1,418.58,117ZM403,115h14.28a7.65,7.65,0,0,0-1.15-2.13,7.14,7.14,0,0,0-2.61-2,8.17,8.17,0,0,0-3.47-.77,7.33,7.33,0,0,0-5.11,1.91A7.86,7.86,0,0,0,403,115Z"/><path d="M435.86,98.41h2.94v8.48h4.66v2.54H438.8v20.29h-2.94V109.43h-4v-2.54h4Z"/><path d="M438.8,130.72h-2.94a1,1,0,0,1-1-1V110.43h-3a1,1,0,0,1-1-1v-2.54a1,1,0,0,1,1-1h3V98.41a1,1,0,0,1,1-1h2.94a1,1,0,0,1,1,1v7.48h3.66a1,1,0,0,1,1,1v2.54a1,1,0,0,1-1,1H439.8v19.29A1,1,0,0,1,438.8,130.72Zm-1.94-2h.94V109.43a1,1,0,0,1,1-1h3.66v-.54H438.8a1,1,0,0,1-1-1V99.41h-.94v7.48a1,1,0,0,1-1,1h-3v.54h3a1,1,0,0,1,1,1Z"/><path d="M453.88,106.89h2.94V111a12.34,12.34,0,0,1,3.91-3.52,9.64,9.64,0,0,1,4.66-1.16,8.07,8.07,0,0,1,4.54,1.3,7.82,7.82,0,0,1,2.93,3.5,18.58,18.58,0,0,1,.94,6.87v11.75h-2.94V118.83a27.71,27.71,0,0,0-.32-5.27,5.81,5.81,0,0,0-2-3.41A6,6,0,0,0,464.8,109a7.23,7.23,0,0,0-4.78,1.76,8.29,8.29,0,0,0-2.78,4.36,30.47,30.47,0,0,0-.42,6.22v8.37h-2.94Z"/><path d="M473.8,130.72h-2.94a1,1,0,0,1-1-1V118.83a25.77,25.77,0,0,0-.29-5,4.92,4.92,0,0,0-1.61-2.87,5,5,0,0,0-3.16-.92,6.25,6.25,0,0,0-4.14,1.53,7.2,7.2,0,0,0-2.45,3.84,29.62,29.62,0,0,0-.39,6v8.37a1,1,0,0,1-1,1h-2.94a1,1,0,0,1-1-1V106.89a1,1,0,0,1,1-1h2.94a1,1,0,0,1,1,1v1.47a12.19,12.19,0,0,1,2.43-1.78,10.65,10.65,0,0,1,5.14-1.28,9.16,9.16,0,0,1,5.09,1.46,8.84,8.84,0,0,1,3.3,3.95,19.25,19.25,0,0,1,1,7.26v11.75A1,1,0,0,1,473.8,130.72Zm-1.94-2h.94V118a17.79,17.79,0,0,0-.86-6.47,6.73,6.73,0,0,0-2.56-3.06,7,7,0,0,0-4-1.14,8.7,8.7,0,0,0-4.19,1,11.49,11.49,0,0,0-3.58,3.24,1,1,0,0,1-1.8-.6v-3.09h-.94v20.83h.94v-7.37a31,31,0,0,1,.45-6.46,9.31,9.31,0,0,1,3.11-4.89,8.29,8.29,0,0,1,5.42-2,7,7,0,0,1,4.4,1.35,6.84,6.84,0,0,1,2.31,4,27,27,0,0,1,.35,5.49Z"/><path d="M508.86,106.89v22.83H506v-3.93a12.48,12.48,0,0,1-4.14,3.38,11.54,11.54,0,0,1-13.3-2.38,11.77,11.77,0,0,1-3.44-8.55,11.58,11.58,0,0,1,3.47-8.44,11.3,11.3,0,0,1,8.33-3.5,10.88,10.88,0,0,1,5.09,1.19,11.56,11.56,0,0,1,4,3.59v-4.19Zm-11.74,2.24a8.88,8.88,0,0,0-7.83,4.59,9.26,9.26,0,0,0-1.23,4.61A9.36,9.36,0,0,0,489.3,123a9,9,0,0,0,3.32,3.42,8.69,8.69,0,0,0,4.48,1.23,9.18,9.18,0,0,0,4.57-1.22,8.47,8.47,0,0,0,3.32-3.29,9.33,9.33,0,0,0,1.16-4.67,9.11,9.11,0,0,0-2.61-6.63A8.66,8.66,0,0,0,497.12,109.13Z"/><path d="M496.79,131.31a12.17,12.17,0,0,1-9-3.82,12.8,12.8,0,0,1-3.72-9.25,12.59,12.59,0,0,1,3.76-9.14,12.3,12.3,0,0,1,9-3.8,11.77,11.77,0,0,1,5.55,1.31,11.52,11.52,0,0,1,2.53,1.81v-1.53a1,1,0,0,1,1-1h2.9a1,1,0,0,1,1,1v22.83a1,1,0,0,1-1,1H506a1,1,0,0,1-1-1v-1.46a12.76,12.76,0,0,1-2.7,1.81A12.24,12.24,0,0,1,496.79,131.31Zm.09-24a10.22,10.22,0,0,0-7.62,3.21,10.5,10.5,0,0,0-3.18,7.73,10.72,10.72,0,0,0,3.15,7.85,10.08,10.08,0,0,0,7.56,3.22,10.34,10.34,0,0,0,4.59-1,11.59,11.59,0,0,0,3.81-3.12,1,1,0,0,1,1.11-.31,1,1,0,0,1,.66.94v2.93h.9V107.89H507v3.19a1,1,0,0,1-1.81.59,10.66,10.66,0,0,0-3.65-3.29A9.78,9.78,0,0,0,496.88,107.3Zm.22,21.3a9.74,9.74,0,0,1-5-1.36,10.08,10.08,0,0,1-3.69-3.81,10.21,10.21,0,0,1,0-10.2,9.85,9.85,0,0,1,8.7-5.1,9.67,9.67,0,0,1,7.14,3,10.11,10.11,0,0,1,2.89,7.33,10.37,10.37,0,0,1-1.29,5.16,9.46,9.46,0,0,1-3.7,3.67A10.15,10.15,0,0,1,497.1,128.6Zm0-18.47a7.82,7.82,0,0,0-4,1.07,7.92,7.92,0,0,0-2.93,3,8.31,8.31,0,0,0-1.1,4.12,8.42,8.42,0,0,0,1.11,4.13,8.11,8.11,0,0,0,3,3.05,8,8,0,0,0,8.05,0,7.42,7.42,0,0,0,2.94-2.91,8.38,8.38,0,0,0,1-4.18,8.09,8.09,0,0,0-2.32-5.93A7.62,7.62,0,0,0,497.12,110.13Z"/><path d="M521.47,106.89h2.94v3.94a11.37,11.37,0,0,1,3.15-3.19,9,9,0,0,1,4.68-1.34,7.83,7.83,0,0,1,3.15.65,6.7,6.7,0,0,1,2.44,1.73,9.2,9.2,0,0,1,1.64,3.1,10.94,10.94,0,0,1,3.66-4.09,8.7,8.7,0,0,1,4.74-1.39,7.44,7.44,0,0,1,4.17,1.19,7.09,7.09,0,0,1,2.69,3.34,17.73,17.73,0,0,1,.88,6.42v12.47h-3V117.25a16.18,16.18,0,0,0-.52-5A4.58,4.58,0,0,0,550.3,110a5.33,5.33,0,0,0-3-.84,6.58,6.58,0,0,0-3.9,1.26,7.29,7.29,0,0,0-2.59,3.36,21.41,21.41,0,0,0-.81,7v8.94H537V118a20.13,20.13,0,0,0-.51-5.61,4.8,4.8,0,0,0-1.8-2.38,5.21,5.21,0,0,0-3-.89,6.55,6.55,0,0,0-3.81,1.23,7.23,7.23,0,0,0-2.62,3.31,17.68,17.68,0,0,0-.85,6.35v9.68h-2.94Z"/><path d="M555.61,130.72h-3a1,1,0,0,1-1-1V117.25a14.8,14.8,0,0,0-.46-4.69,3.48,3.48,0,0,0-1.4-1.73,4.29,4.29,0,0,0-2.47-.68,5.49,5.49,0,0,0-3.32,1.08,6.15,6.15,0,0,0-2.23,2.9,20.46,20.46,0,0,0-.75,6.65v8.94a1,1,0,0,1-1,1H537a1,1,0,0,1-1-1V118a18.47,18.47,0,0,0-.46-5.29,3.67,3.67,0,0,0-1.42-1.87,4.19,4.19,0,0,0-2.47-.72,5.58,5.58,0,0,0-3.24,1,6.26,6.26,0,0,0-2.27,2.86,17.16,17.16,0,0,0-.77,6v9.68a1,1,0,0,1-1,1h-2.94a1,1,0,0,1-1-1V106.89a1,1,0,0,1,1-1h2.94a1,1,0,0,1,1,1v1.2a9.42,9.42,0,0,1,1.62-1.3,10,10,0,0,1,5.21-1.49,8.91,8.91,0,0,1,3.55.73,7.4,7.4,0,0,1,3.86,3.6,11.07,11.07,0,0,1,3-2.78,9.67,9.67,0,0,1,5.27-1.55,8.4,8.4,0,0,1,4.72,1.36,8.18,8.18,0,0,1,3.07,3.79,18.62,18.62,0,0,1,1,6.8v12.47A1,1,0,0,1,555.61,130.72Zm-2-2h1V117.25a17.09,17.09,0,0,0-.8-6,6.11,6.11,0,0,0-2.32-2.88,6.38,6.38,0,0,0-3.62-1,7.57,7.57,0,0,0-4.2,1.24,9.9,9.9,0,0,0-3.32,3.71,1,1,0,0,1-1,.52,1,1,0,0,1-.86-.67,8.48,8.48,0,0,0-1.45-2.76,5.7,5.7,0,0,0-2.09-1.47,7.52,7.52,0,0,0-6.92.63,10.54,10.54,0,0,0-2.85,2.91,1,1,0,0,1-1.12.37,1,1,0,0,1-.69-1v-2.94h-.94v20.83h.94V120a18.56,18.56,0,0,1,.92-6.73,8.31,8.31,0,0,1,3-3.75,7.54,7.54,0,0,1,4.38-1.41,6.18,6.18,0,0,1,3.61,1.07,5.69,5.69,0,0,1,2.17,2.87A20.68,20.68,0,0,1,538,118v10.69H539v-7.94a22,22,0,0,1,.88-7.37,8.2,8.2,0,0,1,2.94-3.81,7.56,7.56,0,0,1,4.48-1.45,6.31,6.31,0,0,1,3.57,1,5.5,5.5,0,0,1,2.17,2.69,16.75,16.75,0,0,1,.59,5.4Z"/><path d="M69.54,76.55H60.23l.1-56-19.64,56H38.54L11.43,21.31l1.13,55.24H9.28V12h9.11L42.84,62.33,60.64,12h8.9Z"/><path d="M69.54,78.55H60.23a2,2,0,0,1-2-2l.08-44.15L42.57,77.21a2,2,0,0,1-1.88,1.34H38.54a2,2,0,0,1-1.8-1.12L13.62,30.3l.94,46.21a2,2,0,0,1-2,2H9.28a2,2,0,0,1-2-2V12a2,2,0,0,1,2-2h9.11a2,2,0,0,1,1.8,1.12l22.36,46,16.2-45.82A2,2,0,0,1,60.64,10h8.9a2,2,0,0,1,2,2V76.55A2,2,0,0,1,69.54,78.55Zm-7.31-4h5.31V14H62.05l-1.62,4.59.24,0a2,2,0,0,1,1.66,2ZM11.43,19.31a2,2,0,0,1,1.8,1.11L39.49,73.93l3.37-9.6A2,2,0,0,1,41,63.2L17.14,14H11.28v5.31Z"/><path d="M108.1,12l23.53,64.55H120.79l-7.68-22.92c-.27-.07-.7-.15-1.28-.25a33.32,33.32,0,0,0-3.42-.31,41.87,41.87,0,0,0-5,0,32.62,32.62,0,0,0-5.73,1,28.45,28.45,0,0,0-6,2.2,20.76,20.76,0,0,0-5.32,4,20.24,20.24,0,0,0-4.14,6.24l-3.68,10H74.65L98.49,12ZM84.68,58a20.12,20.12,0,0,1,6.44-4.76,23.75,23.75,0,0,1,7.37-2.2,51.92,51.92,0,0,1,6.8-.35,38.59,38.59,0,0,1,5.16.35l1.85.41L99.71,14.25Z"/><path d="M131.63,78.55H120.79a2,2,0,0,1-1.9-1.37l-7.31-21.82h-.09a31.35,31.35,0,0,0-3.2-.28,38,38,0,0,0-4.77,0,30.68,30.68,0,0,0-5.37.91,26.8,26.8,0,0,0-5.56,2,19,19,0,0,0-4.8,3.66,18.39,18.39,0,0,0-3.71,5.58l-3.67,10a2,2,0,0,1-1.87,1.31H74.65A2,2,0,0,1,73,77.69a2,2,0,0,1-.24-1.84L96.61,11.3A2,2,0,0,1,98.49,10h9.61A2,2,0,0,1,110,11.31l23.53,64.55a2,2,0,0,1-1.88,2.69Zm-9.4-4h6.54L106.7,14h-5l12.45,36.84a1.93,1.93,0,0,1,0,1.14,2,2,0,0,1,.78,1ZM83.14,59.32l-1.33,3.62a21.18,21.18,0,0,1,2.18-3,2.41,2.41,0,0,1-.33-.15A2.21,2.21,0,0,1,83.14,59.32ZM99.7,20.45,88.78,52.23c.48-.27,1-.52,1.48-.76a25.27,25.27,0,0,1,8-2.38,56,56,0,0,1,7.06-.37c1.55,0,2.87.09,4,.2Z"/><path d="M179,12h3.48V76.55h-1.53L139.1,23.25l1.12,53.3H137V12h4.91l38.26,49.2Z"/><path d="M182.47,78.55h-1.53a2,2,0,0,1-1.58-.77L141.22,29.2l1,47.3a2,2,0,0,1-2,2H137a2,2,0,0,1-2-2V12a2,2,0,0,1,2-2h4.91a2,2,0,0,1,1.58.77L178,55.19,177,12a2,2,0,0,1,2-2h3.48a2,2,0,0,1,2,2V76.55A2,2,0,0,1,182.47,78.55ZM139.1,21.25a2,2,0,0,1,1.57.76l39.8,50.7V63.17a2,2,0,0,1-1.93-.74L140.88,14H139v7.25Z"/><path d="M237.81,12V54.25q0,11.14-5,17.18t-14.83,6q-13.2,0-19.54-5.63t-6.34-18.11V12h9.1V55.37q0,9.21,4.4,14.63t12.48,5.42a18.5,18.5,0,0,0,8.18-1.69,13.52,13.52,0,0,0,5.48-4.65,22,22,0,0,0,3-6.55,29.53,29.53,0,0,0,1-7.77L234.23,12Z"/><path d="M218,79.47c-9.27,0-16.28-2.07-20.87-6.13s-7-10.73-7-19.61V12a2,2,0,0,1,2-2h9.1a2,2,0,0,1,2,2V55.37c0,5.64,1.33,10.14,3.95,13.37s6.13,4.68,10.93,4.68a16.61,16.61,0,0,0,7.31-1.49,11.46,11.46,0,0,0,4.69-4A20.08,20.08,0,0,0,232.76,62a27.74,27.74,0,0,0,.9-7.25l-1.43-42.7a2,2,0,0,1,.56-1.45,2,2,0,0,1,1.44-.61h3.58a2,2,0,0,1,2,2V54.25c0,7.87-1.84,14.09-5.47,18.46S225.11,79.47,218,79.47ZM194.09,14V53.73c0,7.69,1.9,13.28,5.66,16.61A18.42,18.42,0,0,0,207,74.13a16.58,16.58,0,0,1-3-2.87c-3.21-4-4.84-9.31-4.84-15.89V14Z"/><path d="M286.71,12v3.68l-29.87-1.43V42h17.9v2.25h-17.9V76.55h-9.31V12Z"/><path d="M256.84,78.55h-9.31a2,2,0,0,1-2-2V12a2,2,0,0,1,2-2h39.18a2,2,0,0,1,2,2v3.68a2,2,0,0,1-.62,1.45,2,2,0,0,1-1.48.55l-27.77-1.33V40h15.9a2,2,0,0,1,2,2v2.25a2,2,0,0,1-2,2h-15.9V76.55A2,2,0,0,1,256.84,78.55Zm-7.31-4h5.31V44.22a2,2,0,0,1,.34-1.12,2.09,2.09,0,0,1-.34-1.13V14.25a2,2,0,0,1,0-.25h-5.32Z"/><path d="M311,12l23.53,64.55H323.64L316,53.63c-.28-.07-.7-.15-1.28-.25a33.61,33.61,0,0,0-3.43-.31,41.87,41.87,0,0,0-5,0,32.62,32.62,0,0,0-5.73,1,28.65,28.65,0,0,0-6,2.2,20.72,20.72,0,0,0-5.31,4,20.44,20.44,0,0,0-4.15,6.24l-3.68,10H277.5L301.34,12ZM287.53,58A20.12,20.12,0,0,1,294,53.27a23.75,23.75,0,0,1,7.37-2.2,51.92,51.92,0,0,1,6.8-.35,38.89,38.89,0,0,1,5.17.35l1.84.41L302.57,14.25Z"/><path d="M334.48,78.55H323.64a2,2,0,0,1-1.9-1.37l-7.3-21.82h-.1a31,31,0,0,0-3.2-.28,38,38,0,0,0-4.77,0A30.68,30.68,0,0,0,301,56a27.23,27.23,0,0,0-5.56,2,19,19,0,0,0-4.8,3.66,18.39,18.39,0,0,0-3.71,5.58l-3.66,10a2,2,0,0,1-1.88,1.31H277.5a2,2,0,0,1-1.87-2.7L299.46,11.3a2,2,0,0,1,1.88-1.3H311a2,2,0,0,1,1.88,1.31l23.53,64.55a2,2,0,0,1-.24,1.83A2,2,0,0,1,334.48,78.55Zm-9.4-4h6.54L309.55,14h-5L317,50.84a2,2,0,0,1,0,1.14,1.93,1.93,0,0,1,.77,1ZM286,59.32l-1.34,3.62a21.18,21.18,0,0,1,2.18-3,2,2,0,0,1-.84-.59Zm16.55-38.87L291.63,52.23c.49-.27,1-.52,1.49-.76a25.21,25.21,0,0,1,8-2.38,56.2,56.2,0,0,1,7.06-.37c1.55,0,2.87.09,4,.2Z"/><path d="M381.54,60.79l.36.05a6.81,6.81,0,0,1,.81.26,6.68,6.68,0,0,1,1.08.51,5.64,5.64,0,0,1,1,.82,3.06,3.06,0,0,1,.72,1.07,3.27,3.27,0,0,1,.1,1.44,4.86,4.86,0,0,1-.72,1.89q-6.35,10.64-21.27,10.64a26.15,26.15,0,0,1-10.85-2.41,29.79,29.79,0,0,1-9.36-6.65,32.59,32.59,0,0,1-6.54-10.53,36.13,36.13,0,0,1-2.51-13.56,37.68,37.68,0,0,1,2.4-13.55,32.18,32.18,0,0,1,6.35-10.54,28.86,28.86,0,0,1,9.15-6.65A25.45,25.45,0,0,1,363,11.18,34.14,34.14,0,0,1,373.25,13a29.57,29.57,0,0,1,9.41,4.76l-4.09,6Q372,13.43,362.92,13.43q-7.37,0-12.48,9.1t-5.12,21.9q0,12.89,5.63,21.94t13.81,9a16.45,16.45,0,0,0,11.66-4.86Q381.54,65.7,381.54,60.79Z"/><path d="M363.64,79.47A28.25,28.25,0,0,1,352,76.89a31.85,31.85,0,0,1-10-7.1,34.81,34.81,0,0,1-7-11.17,38.39,38.39,0,0,1-2.65-14.3,39.71,39.71,0,0,1,2.54-14.27,34.22,34.22,0,0,1,6.74-11.18,30.76,30.76,0,0,1,9.79-7.1A27.43,27.43,0,0,1,363,9.18a36.25,36.25,0,0,1,10.84,1.88,32.19,32.19,0,0,1,10,5.09,2,2,0,0,1,.42,2.7l-4.09,6a2,2,0,0,1-1.66.88h0a2,2,0,0,1-1.66-.93c-4-6.33-8.57-9.4-14-9.4-4.17,0-7.68,2.64-10.74,8.08-3.22,5.74-4.86,12.78-4.86,20.92s1.8,15.2,5.33,20.88c3.39,5.46,7.35,8.11,12.11,8.11a14.44,14.44,0,0,0,10.29-4.31c3-2.83,4.49-5.63,4.49-8.32a2,2,0,0,1,2-2,4,4,0,0,1,.75.09,8.42,8.42,0,0,1,1.11.34,8.69,8.69,0,0,1,1.41.67A7.14,7.14,0,0,1,386.22,61a5.18,5.18,0,0,1,1.19,1.8,5.24,5.24,0,0,1,.21,2.35,7,7,0,0,1-1,2.7C382,75.56,374.3,79.47,363.64,79.47ZM353.59,15.19l-.47.21a27.23,27.23,0,0,0-8.53,6.19,30.3,30.3,0,0,0-5.94,9.89,35.82,35.82,0,0,0-2.27,12.84,34.46,34.46,0,0,0,2.36,12.82A30.62,30.62,0,0,0,344.88,67a27.62,27.62,0,0,0,8.74,6.21l.85.37a25.44,25.44,0,0,1-5.22-6.19c-3.93-6.32-5.93-14.06-5.93-23s1.81-16.53,5.38-22.88A25,25,0,0,1,353.59,15.19Zm29.59,48.45a16.54,16.54,0,0,1-4.06,7,19.08,19.08,0,0,0,4.08-4.87,2.88,2.88,0,0,0,.44-1.1,1.52,1.52,0,0,0,0-.52,1.27,1.27,0,0,0-.26-.34Zm-9.44-48.4a26.35,26.35,0,0,1,4.82,5l1.35-2A28.53,28.53,0,0,0,373.74,15.24Z"/><path d="M386.34,12h50.74v3.68l-20.66-1.43v62.3H407V14.25l-20.67,1.43Z"/><path d="M416.42,78.55H407a2,2,0,0,1-2-2V16.39l-18.53,1.29a2,2,0,0,1-1.5-.54,2,2,0,0,1-.64-1.46V12a2,2,0,0,1,2-2h50.74a2,2,0,0,1,2,2v3.68a2,2,0,0,1-.63,1.46,2,2,0,0,1-1.5.54l-18.53-1.29V76.55A2,2,0,0,1,416.42,78.55Zm-7.41-4h5.41V14.25a1,1,0,0,1,0-.25H409a2,2,0,0,1,0,.25Z"/><path d="M486.9,12V54.25q0,11.14-5,17.18t-14.83,6q-13.2,0-19.54-5.63t-6.34-18.11V12h9.1V55.37q0,9.21,4.4,14.63t12.48,5.42a18.5,18.5,0,0,0,8.18-1.69,13.52,13.52,0,0,0,5.48-4.65,22,22,0,0,0,3-6.55,29.53,29.53,0,0,0,1-7.77L483.32,12Z"/><path d="M467.06,79.47c-9.27,0-16.28-2.07-20.87-6.13s-7-10.73-7-19.61V12a2,2,0,0,1,2-2h9.1a2,2,0,0,1,2,2V55.37c0,5.64,1.33,10.14,4,13.37s6.13,4.68,10.93,4.68a16.61,16.61,0,0,0,7.31-1.49,11.46,11.46,0,0,0,4.69-4A20.08,20.08,0,0,0,481.85,62a27.74,27.74,0,0,0,.9-7.25l-1.43-42.7a2,2,0,0,1,.56-1.45,2,2,0,0,1,1.44-.61h3.58a2,2,0,0,1,2,2V54.25c0,7.87-1.84,14.09-5.47,18.46S474.2,79.47,467.06,79.47ZM443.18,14V53.73c0,7.69,1.9,13.28,5.66,16.61a18.42,18.42,0,0,0,7.28,3.79,16.58,16.58,0,0,1-3-2.87c-3.21-4-4.84-9.31-4.84-15.89V14Z"/><path d="M521.07,50c1.23.14,2.86,1.18,4.91,3.12a71.1,71.1,0,0,1,6.39,7.06q3.33,4.14,7.62,8.64t8.34,8.13A27.48,27.48,0,0,0,557,82.27a13.08,13.08,0,0,0,8.6.52v1.84A10.17,10.17,0,0,1,562,85.91a44,44,0,0,1-7.06.92,22.63,22.63,0,0,1-9.31-1.69,25,25,0,0,1-9.1-6q-2.35-2.44-11.15-12.43T512.88,53q-2.44-2.57-4.7-2.56l-2.35.1v26.6h-9.31V12.61h16.67q14,0,20.46,5.17t6.45,14.06a15.85,15.85,0,0,1-4.91,12Q530.27,48.52,521.07,50Zm-15.24-1.64h7.77q7.26,0,11.66-4.65a16.8,16.8,0,0,0,4.4-12q0-7.77-3.89-12.28t-11.25-4.5h-8.69Zm59.74,28.85h-9.31V12.61h9.31Z"/><path d="M554,88.86A25.64,25.64,0,0,1,544.91,87a27.09,27.09,0,0,1-9.83-6.51c-1.6-1.67-5.26-5.75-11.21-12.5s-10-11.17-12.4-13.57c-1.25-1.3-2.38-2-3.29-2l-.35,0V77.16a2,2,0,0,1-2,2h-9.31a2,2,0,0,1-2-2V12.61a2,2,0,0,1,2-2h16.67c9.76,0,17.07,1.89,21.71,5.61s7.2,9.08,7.2,15.62a17.87,17.87,0,0,1-5.53,13.42,24.34,24.34,0,0,1-10.11,5.54l.9.82a72.77,72.77,0,0,1,6.57,7.26c2.17,2.7,4.7,5.56,7.51,8.51s5.59,5.66,8.23,8a25.41,25.41,0,0,0,8,5,10.91,10.91,0,0,0,7.3.47,2,2,0,0,1,1.78.31,2,2,0,0,1,.81,1.61v1.84a2,2,0,0,1-.7,1.52c-.76.65-2.09,1.16-4.43,1.7a44.56,44.56,0,0,1-7.39,1C554.69,88.85,554.33,88.86,554,88.86ZM512.88,50.31a13.43,13.43,0,0,1,1.45,1.32c2.46,2.47,6.57,7,12.54,13.72S536.43,76.13,538,77.72a23.22,23.22,0,0,0,8.37,5.55,20.64,20.64,0,0,0,8.48,1.56c1-.06,1.92-.14,2.79-.23-.44-.14-.89-.29-1.33-.45A29.66,29.66,0,0,1,547,78.39c-2.71-2.43-5.55-5.21-8.44-8.24s-5.5-6-7.74-8.77a69.43,69.43,0,0,0-6.21-6.86c-2.39-2.28-3.48-2.55-3.75-2.58A2,2,0,0,1,519.07,50a2.34,2.34,0,0,1,0-.38,20.61,20.61,0,0,1-5.5.7ZM498.52,75.16h5.31V50.56a2,2,0,0,1,.34-1.12,2,2,0,0,1-.34-1.13V14.86a2.09,2.09,0,0,1,0-.25h-5.32Zm26.4-59.29a14.39,14.39,0,0,1,2.37,2.19c2.9,3.36,4.37,7.93,4.37,13.58A18.79,18.79,0,0,1,526.72,45a16.3,16.3,0,0,1-2.66,2.28,21.26,21.26,0,0,0,9.74-4.94,13.83,13.83,0,0,0,4.3-10.53c0-5.34-1.87-9.43-5.7-12.5A19.53,19.53,0,0,0,524.92,15.87ZM507.83,46.31h5.77c4.31,0,7.65-1.32,10.21-4s3.85-6.22,3.85-10.64c0-4.67-1.14-8.36-3.4-11s-5.4-3.81-9.74-3.81h-6.69Zm57.74,32.85h-9.31a2,2,0,0,1-2-2V12.61a2,2,0,0,1,2-2h9.31a2,2,0,0,1,2,2V77.16A2,2,0,0,1,565.57,79.16Zm-7.31-4h5.31V14.61h-5.31Z"/><path d="M617.74,12h3.48V76.55h-1.54l-41.84-53.3L579,76.55H575.7V12h4.91l38.25,49.2Z"/><path d="M621.22,78.55h-1.54a2,2,0,0,1-1.57-.77L580,29.2l1,47.3A2.06,2.06,0,0,1,580.4,78a2,2,0,0,1-1.43.6H575.7a2,2,0,0,1-2-2V12a2,2,0,0,1,2-2h4.91a2,2,0,0,1,1.57.77l34.55,44.42-1-43.15a2,2,0,0,1,2-2h3.48a2,2,0,0,1,2,2V76.55A2,2,0,0,1,621.22,78.55Zm-43.38-57.3a2,2,0,0,1,1.58.76l39.8,50.7V63.17a2,2,0,0,1-1.94-.74L579.63,14H577.7v7.25Z"/><path d="M683.51,44.32v22.1c-.2.27-.52.66-1,1.18a27.82,27.82,0,0,1-3.07,2.66,35.5,35.5,0,0,1-5.16,3.37A33.07,33.07,0,0,1,667,76.29a38.23,38.23,0,0,1-9.56,1.18,25.46,25.46,0,0,1-10.74-2.41,28.85,28.85,0,0,1-9.16-6.65,32.21,32.21,0,0,1-6.34-10.53,37.73,37.73,0,0,1-2.4-13.56,37.68,37.68,0,0,1,2.4-13.55,32.16,32.16,0,0,1,6.34-10.54,29,29,0,0,1,9.16-6.65,25.45,25.45,0,0,1,10.74-2.4A34.14,34.14,0,0,1,667.66,13a29.57,29.57,0,0,1,9.41,4.76l-4.09,6q-6.56-10.33-15.65-10.33-7.37,0-12.48,9.1t-5.12,21.9q0,13.18,5.12,22.09t13.6,8.9a19.75,19.75,0,0,0,5.78-.82,16.35,16.35,0,0,0,4.45-2,37.71,37.71,0,0,0,3.07-2.3,9,9,0,0,0,1.84-2l.62-.82V44.32Z"/><path d="M657.43,79.47a27.51,27.51,0,0,1-11.58-2.59,30.86,30.86,0,0,1-9.78-7.11,34.2,34.2,0,0,1-6.75-11.18,39.85,39.85,0,0,1-2.53-14.27,39.93,39.93,0,0,1,2.53-14.27,34.41,34.41,0,0,1,6.75-11.18,30.83,30.83,0,0,1,9.78-7.1,27.47,27.47,0,0,1,11.58-2.59,36.14,36.14,0,0,1,10.83,1.88,32.08,32.08,0,0,1,10,5.09,2,2,0,0,1,.43,2.7l-4.1,6a2,2,0,0,1-1.65.88h0a2,2,0,0,1-1.66-.93c-4-6.33-8.58-9.4-14-9.4-4.17,0-7.68,2.64-10.74,8.08-3.22,5.74-4.86,12.78-4.86,20.92,0,8.4,1.63,15.5,4.85,21.09,3,5.32,6.94,7.9,11.87,7.9a18.2,18.2,0,0,0,5.2-.73A14.63,14.63,0,0,0,667.56,71a35.28,35.28,0,0,0,2.9-2.17,7.05,7.05,0,0,0,1.44-1.48l.09-.14.22-.28V44.32a2,2,0,0,1,2-2h9.3a2,2,0,0,1,2,2v22.1a2.07,2.07,0,0,1-.39,1.2c-.23.3-.58.72-1.06,1.28a25.69,25.69,0,0,1-3.35,2.93,37.68,37.68,0,0,1-5.46,3.56,35.29,35.29,0,0,1-7.76,2.84A40.42,40.42,0,0,1,657.43,79.47ZM648,15.19l-.47.21A27,27,0,0,0,639,21.59a30.3,30.3,0,0,0-5.94,9.89,35.82,35.82,0,0,0-2.27,12.84,35.74,35.74,0,0,0,2.27,12.84A30.09,30.09,0,0,0,639,67.05a26.88,26.88,0,0,0,8.53,6.2l.16.07a23.18,23.18,0,0,1-4.58-5.8c-3.57-6.21-5.38-14-5.38-23.09,0-8.84,1.81-16.53,5.37-22.88A25.06,25.06,0,0,1,648,15.19ZM675.24,69.5a11.16,11.16,0,0,1-2.2,2.33c-.19.17-.39.33-.6.5.33-.15.63-.31.92-.46a33.58,33.58,0,0,0,4.88-3.19,22.37,22.37,0,0,0,2.79-2.4l.48-.56V46.32h-5.3V67.54a2,2,0,0,1-.4,1.2Zm-7.1-54.26a26.35,26.35,0,0,1,4.82,5l1.36-2A28.62,28.62,0,0,0,668.14,15.24Z"/></svg>