<svg xmlns="http://www.w3.org/2000/svg" width="4728" height="3935" viewBox="0 0 4728 3935" version="1.1"><path d="" stroke="none" fill="#10cc6c" fill-rule="evenodd"/><path d="M 4705.500 5.120 C 4381.034 90.130, 4015.739 274.785, 3613 557.373 C 3124.023 900.471, 2580.818 1388.596, 2020.944 1988 C 1806.056 2218.061, 1575.345 2481.332, 1407.080 2688.500 C 1395.912 2702.250, 1386.479 2713.615, 1386.117 2713.757 C 1385.756 2713.898, 1217.911 2510.818, 1013.128 2262.469 C 686.040 1865.793, 640.600 1811.081, 639.183 1812.212 C 638.295 1812.920, 494.075 1932.691, 318.693 2078.369 L -0.183 2343.238 4.158 2347.721 C 35.069 2379.640, 1568.266 3934.450, 1568.702 3934.319 C 1569.033 3934.220, 1579.286 3912.170, 1591.486 3885.319 C 1711.231 3621.768, 1836.972 3368.381, 1969.283 3124 C 2388.276 2350.112, 2874.082 1664.692, 3410.903 1090.028 C 3770.092 705.519, 4155.613 370.268, 4511.500 132.946 C 4591.504 79.596, 4650.370 43.436, 4722 3.642 C 4725.578 1.654, 4727.601 0.056, 4726.500 0.087 C 4725.400 0.117, 4715.950 2.382, 4705.500 5.120" stroke="none" fill="#0ccc6c" fill-rule="evenodd"/></svg>