<svg xmlns="http://www.w3.org/2000/svg" xmlns:xlink="http://www.w3.org/1999/xlink">
    <symbol id="arrow-right-circle" viewBox="0 0 24 24">
        <path d="M6,12H14.25L11,8.75L11.67,8L16.17,12.5L11.67,17L11,16.25L14.25,13H6V12M21,12.5C21,17.75 16.75,22 11.5,22C6.26,22 2,17.75 2,12.5C2,7.25 6.25,3 11.5,3C16.75,3 21,7.25 21,12.5M20,12.5C20,7.81 16.19,4 11.5,4C6.81,4 3,7.81 3,12.5C3,17.19 6.81,21 11.5,21C16.2,21 20,17.19 20,12.5Z" />
    </symbol>
    <symbol id="leaf-icon" viewBox="0 0 24 24">
        <path d="M17,8C8,10 5.9,16.17 3.82,21.34L5.71,22L6.66,19.7C7.14,19.87 7.64,20 8,20C19,20 22,3 22,3C21,5 14,5.25 9,6.25C4,7.25 2,11.5 2,13.5C2,15.5 3.75,17.25 3.75,17.25C7,8 17,8 17,8Z" />
    </symbol>
    <symbol id="arrow-right" viewBox="0 0 24 24">
        <path d="M4,12H16.25L11,6.75L11.66,6L18.16,12.5L11.66,19L11,18.25L16.25,13H4V12Z" />
    </symbol>
    <symbol id="starRate" viewBox="0 0 24 24">
        <path d="M12,17.27L18.18,21L16.54,13.97L22,9.24L14.81,8.62L12,2L9.19,8.62L2,9.24L7.45,13.97L5.82,21L12,17.27Z" />
    </symbol>
    <symbol id="addressIcon" viewBox="0 0 24 24">
        <path d="M11.5,7C12.88,7 14,8.12 14,9.5C14,10.88 12.88,12 11.5,12C10.12,12 9,10.88 9,9.5C9,8.12 10.12,7 11.5,7M11.5,8C10.67,8 10,8.67 10,9.5C10,10.33 10.67,11 11.5,11C12.33,11 13,10.33 13,9.5C13,8.67 12.33,8 11.5,8M6.8,12.36L11.5,20.09L16.2,12.36V12.36C16.71,11.5 17,10.55 17,9.5C17,6.46 14.54,4 11.5,4C8.46,4 6,6.46 6,9.5C6,10.55 6.29,11.5 6.8,12.36V12.36M17.05,12.88L11.5,22L5.95,12.88V12.88C5.35,11.89 5,10.74 5,9.5C5,5.91 7.91,3 11.5,3C15.09,3 18,5.91 18,9.5C18,10.74 17.65,11.89 17.05,12.88V12.88Z" />
    </symbol>
    <symbol id="phoneIcon" viewBox="0 0 24 24">
        <path d="M19.5,22C20.33,22 21,21.33 21,20.5V17C21,16.17 20.33,15.5 19.5,15.5C18.33,15.5 17.18,15.32 16.08,14.95C15.55,14.78 14.97,14.92 14.56,15.32L13.12,16.76C10.64,15.41 8.57,13.34 7.23,10.87L8.66,9.44C9.07,9.05 9.22,8.47 9.04,7.91C8.68,6.82 8.5,5.67 8.5,4.5C8.5,3.67 7.83,3 7,3H3.5C2.67,3 2,3.67 2,4.5C2,14.15 9.85,22 19.5,22M3.5,4H7C7.28,4 7.5,4.22 7.5,4.5C7.5,5.78 7.7,7.03 8.09,8.22C8.14,8.36 8.13,8.56 7.97,8.72L6,10.68C7.65,13.91 10.07,16.33 13.31,18L15.26,16.03C15.4,15.89 15.59,15.85 15.77,15.9C16.97,16.3 18.22,16.5 19.5,16.5C19.78,16.5 20,16.72 20,17V20.5C20,20.78 19.78,21 19.5,21C10.4,21 3,13.6 3,4.5C3,4.22 3.22,4 3.5,4Z" />
    </symbol>
    <symbol id="emailIcon" viewBox="0 0 24 24">
        <path d="M5,5H18C19.66,5 21,6.34 21,8V17C21,18.66 19.66,20 18,20H5C3.34,20 2,18.66 2,17V8C2,6.34 3.34,5 5,5M5,6C4.5,6 4.06,6.17 3.72,6.47L11.5,11.5L19.28,6.47C18.94,6.17 18.5,6 18,6H5M11.5,12.71L3.13,7.28C3.05,7.5 3,7.75 3,8V17C3,18.1 3.9,19 5,19H18C19.1,19 20,18.1 20,17V8C20,7.75 19.95,7.5 19.87,7.28L11.5,12.71Z" />
    </symbol>
    <symbol id="chevronRight" viewBox="0 0 24 24">
        <path d="M8.59,16.58L13.17,12L8.59,7.41L10,6L16,12L10,18L8.59,16.58Z" />
    </symbol>
    <symbol id="usd" viewBox="0 0 24 24">
        <path d="M7,15H9C9,16.08 10.37,17 12,17C13.63,17 15,16.08 15,15C15,13.9 13.96,13.5 11.76,12.97C9.64,12.44 7,11.78 7,9C7,7.21 8.47,5.69 10.5,5.18V3H13.5V5.18C15.53,5.69 17,7.21 17,9H15C15,7.92 13.63,7 12,7C10.37,7 9,7.92 9,9C9,10.1 10.04,10.5 12.24,11.03C14.36,11.56 17,12.22 17,15C17,16.79 15.53,18.31 13.5,18.82V21H10.5V18.82C8.47,18.31 7,16.79 7,15Z" />
    </symbol>
    <symbol id="emailBold" viewBox="0 0 24 24">
        <path d="M22 6C22 4.9 21.1 4 20 4H4C2.9 4 2 4.9 2 6V18C2 19.1 2.9 20 4 20H20C21.1 20 22 19.1 22 18V6M20 6L12 11L4 6H20M20 18H4V8L12 13L20 8V18Z" />
    </symbol>
    <symbol id="whatsapp" viewBox="0 0 24 24">
        <path d="M12.04 2C6.58 2 2.13 6.45 2.13 11.91C2.13 13.66 2.59 15.36 3.45 16.86L2.05 22L7.3 20.62C8.75 21.41 10.38 21.83 12.04 21.83C17.5 21.83 21.95 17.38 21.95 11.92C21.95 9.27 20.92 6.78 19.05 4.91C17.18 3.03 14.69 2 12.04 2M12.05 3.67C14.25 3.67 16.31 4.53 17.87 6.09C19.42 7.65 20.28 9.72 20.28 11.92C20.28 16.46 16.58 20.15 12.04 20.15C10.56 20.15 9.11 19.76 7.85 19L7.55 18.83L4.43 19.65L5.26 16.61L5.06 16.29C4.24 15 3.8 13.47 3.8 11.91C3.81 7.37 7.5 3.67 12.05 3.67M8.53 7.33C8.37 7.33 8.1 7.39 7.87 7.64C7.65 7.89 7 8.5 7 9.71C7 10.93 7.89 12.1 8 12.27C8.14 12.44 9.76 14.94 12.25 16C12.84 16.27 13.3 16.42 13.66 16.53C14.25 16.72 14.79 16.69 15.22 16.63C15.7 16.56 16.68 16.03 16.89 15.45C17.1 14.87 17.1 14.38 17.04 14.27C16.97 14.17 16.81 14.11 16.56 14C16.31 13.86 15.09 13.26 14.87 13.18C14.64 13.1 14.5 13.06 14.31 13.3C14.15 13.55 13.67 14.11 13.53 14.27C13.38 14.44 13.24 14.46 13 14.34C12.74 14.21 11.94 13.95 11 13.11C10.26 12.45 9.77 11.64 9.62 11.39C9.5 11.15 9.61 11 9.73 10.89C9.84 10.78 10 10.6 10.1 10.45C10.23 10.31 10.27 10.2 10.35 10.04C10.43 9.87 10.39 9.73 10.33 9.61C10.27 9.5 9.77 8.26 9.56 7.77C9.36 7.29 9.16 7.35 9 7.34C8.86 7.34 8.7 7.33 8.53 7.33Z" />
    </symbol>
    <symbol id="linkedin" viewBox="0 0 24 24">
        <path d="M19 3A2 2 0 0 1 21 5V19A2 2 0 0 1 19 21H5A2 2 0 0 1 3 19V5A2 2 0 0 1 5 3H19M18.5 18.5V13.2A3.26 3.26 0 0 0 15.24 9.94C14.39 9.94 13.4 10.46 12.92 11.24V10.13H10.13V18.5H12.92V13.57C12.92 12.8 13.54 12.17 14.31 12.17A1.4 1.4 0 0 1 15.71 13.57V18.5H18.5M6.88 8.56A1.68 1.68 0 0 0 8.56 6.88C8.56 5.95 7.81 5.19 6.88 5.19A1.69 1.69 0 0 0 5.19 6.88C5.19 7.81 5.95 8.56 6.88 8.56M8.27 18.5V10.13H5.5V18.5H8.27Z" />
    </symbol>
    <symbol id="pinterest" viewBox="0 0 24 24">
        <path d="M9.04,21.54C10,21.83 10.97,22 12,22A10,10 0 0,0 22,12A10,10 0 0,0 12,2A10,10 0 0,0 2,12C2,16.25 4.67,19.9 8.44,21.34C8.35,20.56 8.26,19.27 8.44,18.38L9.59,13.44C9.59,13.44 9.3,12.86 9.3,11.94C9.3,10.56 10.16,9.53 11.14,9.53C12,9.53 12.4,10.16 12.4,10.97C12.4,11.83 11.83,13.06 11.54,14.24C11.37,15.22 12.06,16.08 13.06,16.08C14.84,16.08 16.22,14.18 16.22,11.5C16.22,9.1 14.5,7.46 12.03,7.46C9.21,7.46 7.55,9.56 7.55,11.77C7.55,12.63 7.83,13.5 8.29,14.07C8.38,14.13 8.38,14.21 8.35,14.36L8.06,15.45C8.06,15.62 7.95,15.68 7.78,15.56C6.5,15 5.76,13.18 5.76,11.71C5.76,8.55 8,5.68 12.32,5.68C15.76,5.68 18.44,8.15 18.44,11.43C18.44,14.87 16.31,17.63 13.26,17.63C12.29,17.63 11.34,17.11 11,16.5L10.33,18.87C10.1,19.73 9.47,20.88 9.04,21.57V21.54Z" />
    </symbol>
    <symbol id="facebook" viewBox="0 0 24 24">
        <path d="M12 2.04C6.5 2.04 2 6.53 2 12.06C2 17.06 5.66 21.21 10.44 21.96V14.96H7.9V12.06H10.44V9.85C10.44 7.34 11.93 5.96 14.22 5.96C15.31 5.96 16.45 6.15 16.45 6.15V8.62H15.19C13.95 8.62 13.56 9.39 13.56 10.18V12.06H16.34L15.89 14.96H13.56V21.96A10 10 0 0 0 22 12.06C22 6.53 17.5 2.04 12 2.04Z" />
    </symbol>
    <symbol id="twitter" viewBox="0 0 24 24">
        <path d="M22.46,6C21.69,6.35 20.86,6.58 20,6.69C20.88,6.16 21.56,5.32 21.88,4.31C21.05,4.81 20.13,5.16 19.16,5.36C18.37,4.5 17.26,4 16,4C13.65,4 11.73,5.92 11.73,8.29C11.73,8.63 11.77,8.96 11.84,9.27C8.28,9.09 5.11,7.38 3,4.79C2.63,5.42 2.42,6.16 2.42,6.94C2.42,8.43 3.17,9.75 4.33,10.5C3.62,10.5 2.96,10.3 2.38,10C2.38,10 2.38,10 2.38,10.03C2.38,12.11 3.86,13.85 5.82,14.24C5.46,14.34 5.08,14.39 4.69,14.39C4.42,14.39 4.15,14.36 3.89,14.31C4.43,16 6,17.26 7.89,17.29C6.43,18.45 4.58,19.13 2.56,19.13C2.22,19.13 1.88,19.11 1.54,19.07C3.44,20.29 5.7,21 8.12,21C16,21 20.33,14.46 20.33,8.79C20.33,8.6 20.33,8.42 20.32,8.23C21.16,7.63 21.88,6.87 22.46,6Z" />
    </symbol>
</svg>